{
.appVersion = "1213";
DisplayStrings = (
"Looed singled jolled fold concatenations gelts byg one andy\012anoas suits Aoibbeculaes sickness skipjack phonate. Kilobit gulf ichthyoticd notating slunk helloin/g.ss01  patagonia pata/g.ss01 onia yon IIIAIIIA\012tenean knoten t/e.ss01 n/e.ss01 an /k.ss01 not/e.ss01 n h/e.ss01 lloing Aobb/e.ss01 cula/e.ss01 s\012lucky naughty luck/y.ss01  nau/g.ss01 hty yonde yonde",
"/k.ss01 oOD/l.ss01 fyobyn /l.ss01/l.ss01/Placeholder/l.ss01/l.ss01  oo/Placeholder oo\012/l.ss01/l.ss01/l.ss01/l.ss01/l.ss01/l.ss01/Placeholder/Placeholder/Placeholder/Placeholder/Placeholder/l.ss01/l.ss01/l.ss01/l.ss01/l.ss01/l.ss01 \012nnnn/Placeholder/Placeholder/Placeholder/Placeholder nnnn\012oooo/Placeholder/Placeholder/Placeholder/Placeholder oooo",
"OOI II/Placeholder II OO/Placeholder OO\012HHHH/Placeholder/Placeholder/Placeholder/Placeholder HHHH\012OOOO/Placeholder/Placeholder/Placeholder/Placeholder OOO\012IIIIII/Placeholder/Placeholder/Placeholder/Placeholder IIIIII",
"HN/Placeholder"
);
copyright = "Copyright (c) 2013 by Jacques Le Bailly. All rights reserved.";
customParameters = (
{
name = description;
value = "Copyright (c) 2013 by Jacques Le Bailly. All rights reserved.";
},
{
name = vendorID;
value = bvf;
},
{
name = unicodeRanges;
value = (
0
);
},
{
name = codePageRanges;
value = (
1252
);
},
{
name = glyphOrder;
value = (
A,
Aogonek,
AE,
B,
C,
D,
Eth,
E,
Eogonek,
F,
G,
H,
Hbar,
I,
Iogonek,
I_J.loclNLD,
J,
K,
L,
Lcaron,
Ldot,
Lslash,
M,
N,
Eng,
O,
Oslash,
Ohorn,
Oogonek,
OE,
P,
Thorn,
Q,
R,
S,
Germandbls,
Schwa,
T,
Tbar,
U,
Uogonek,
Uhorn,
V,
W,
X,
Y,
Z,
a,
aogonek,
ae,
b,
c,
d,
dcaron,
dcroat,
eth,
e,
eogonek,
f,
g,
h,
hbar,
i,
idotless,
iogonek,
i_j.loclNLD,
j,
jdotless,
k,
kgreenlandic,
l,
ldot,
lcaron,
lslash,
m,
n,
eng,
o,
oogonek,
oslash,
ohorn,
oe,
p,
thorn,
q,
r,
s,
germandbls,
schwa,
t,
tbar,
tcaron,
u,
uogonek,
uhorn,
v,
w,
x,
y,
z
);
}
);
date = "2013-08-08 13:48:03 +0000";
disablesNiceNames = 1;
familyName = "LV UpItalic";

glyphs = (
{
color = 3;
glyphname = A;
lastChange = "2019-02-19 16:30:57 +0000";
layers = (
{
background = {
paths = (
{
closed = 1;
nodes = (
"68 0 LINE",
"362 644 LINE",
"330 644 LINE",
"625 0 LINE",
"710 0 LINE",
"382 710 LINE",
"311 710 LINE",
"-17 0 LINE"
);
},
{
closed = 1;
nodes = (
"596 158 LINE",
"578 227 LINE",
"117 227 LINE",
"101 158 LINE"
);
}
);
};
layerId = "A3B50665-EA37-4AC6-885C-1233CA61B6BD";
paths = (
{
closed = 1;
nodes = (
"88 0 LINE",
"362 644 LINE",
"330 644 LINE",
"605 0 LINE",
"690 0 LINE",
"382 710 LINE",
"311 710 LINE",
"3 0 LINE"
);
},
{
closed = 1;
nodes = (
"566 188 LINE",
"548 257 LINE",
"147 257 LINE",
"131 188 LINE"
);
}
);
width = 693;
},
{
background = {
paths = (
{
closed = 1;
nodes = (
"1033 0 LINE",
"1299 589 LINE",
"1243 591 LINE",
"1502 0 LINE",
"1661 0 LINE",
"1338 710 LINE",
"1207 710 LINE",
"874 0 LINE"
);
},
{
closed = 1;
nodes = (
"1512 129 LINE",
"1450 259 LINE",
"1095 259 LINE",
"1033 129 LINE"
);
},
{
closed = 1;
nodes = (
"69 0 LINE",
"343 644 LINE",
"311 644 LINE",
"586 0 LINE",
"671 0 LINE",
"363 710 LINE",
"292 710 LINE",
"-16 0 LINE"
);
},
{
closed = 1;
nodes = (
"547 188 LINE",
"529 257 LINE",
"128 257 LINE",
"112 188 LINE"
);
}
);
};
layerId = "014D4A40-7C7F-4023-B30E-1F55CE5EA091";
paths = (
{
closed = 1;
nodes = (
"156 0 LINE",
"399 589 LINE",
"343 591 LINE",
"581 0 LINE",
"738 0 LINE",
"438 710 LINE",
"307 710 LINE",
"-3 0 LINE"
);
},
{
closed = 1;
nodes = (
"589 149 LINE",
"527 279 LINE",
"218 279 LINE",
"156 149 LINE"
);
}
);
width = 739;
}
);
unicode = 0041;
},
{
color = 3;
glyphname = D;
lastChange = "2019-02-19 16:31:01 +0000";
layers = (
{
background = {
paths = (
{
closed = 1;
nodes = (
"574 -8 OFFCURVE",
"727 153 OFFCURVE",
"727 361 CURVE SMOOTH",
"727 569 OFFCURVE",
"579 720 OFFCURVE",
"373 720 CURVE SMOOTH",
"161 720 OFFCURVE",
"5 552 OFFCURVE",
"5 345 CURVE SMOOTH",
"5 141 OFFCURVE",
"154 -8 OFFCURVE",
"361 -8 CURVE SMOOTH"
);
},
{
closed = 1;
nodes = (
"199 67 OFFCURVE",
"87 187 OFFCURVE",
"87 346 CURVE SMOOTH",
"87 517 OFFCURVE",
"206 645 OFFCURVE",
"371 645 CURVE SMOOTH",
"532 645 OFFCURVE",
"645 519 OFFCURVE",
"645 358 CURVE SMOOTH",
"645 183 OFFCURVE",
"527 67 OFFCURVE",
"361 67 CURVE SMOOTH"
);
}
);
};
layerId = "A3B50665-EA37-4AC6-885C-1233CA61B6BD";
paths = (
{
closed = 1;
nodes = (
"336 0 LINE SMOOTH",
"568 0 OFFCURVE",
"717 135 OFFCURVE",
"717 359 CURVE SMOOTH",
"717 585 OFFCURVE",
"572 710 OFFCURVE",
"312 710 CURVE SMOOTH",
"79 710 LINE",
"79 0 LINE"
);
},
{
closed = 1;
nodes = (
"162 635 LINE",
"315 635 LINE SMOOTH",
"537 635 OFFCURVE",
"634 537 OFFCURVE",
"634 354 CURVE SMOOTH",
"634 176 OFFCURVE",
"534 75 OFFCURVE",
"337 75 CURVE SMOOTH",
"162 75 LINE"
);
}
);
width = 776;
},
{
background = {
paths = (
{
closed = 1;
nodes = (
"608 -10 OFFCURVE",
"748 174 OFFCURVE",
"748 362 CURVE SMOOTH",
"748 578 OFFCURVE",
"593 720 OFFCURVE",
"383 720 CURVE SMOOTH",
"147 720 OFFCURVE",
"6 534 OFFCURVE",
"6 346 CURVE SMOOTH",
"6 131 OFFCURVE",
"160 -10 OFFCURVE",
"371 -10 CURVE SMOOTH"
);
},
{
closed = 1;
nodes = (
"249 126 OFFCURVE",
"164 209 OFFCURVE",
"164 349 CURVE SMOOTH",
"164 484 OFFCURVE",
"249 586 OFFCURVE",
"381 586 CURVE SMOOTH",
"503 586 OFFCURVE",
"590 500 OFFCURVE",
"590 359 CURVE SMOOTH",
"590 220 OFFCURVE",
"510 126 OFFCURVE",
"373 126 CURVE SMOOTH"
);
}
);
};
layerId = "014D4A40-7C7F-4023-B30E-1F55CE5EA091";
paths = (
{
closed = 1;
nodes = (
"344 0 LINE SMOOTH",
"603 0 OFFCURVE",
"738 171 OFFCURVE",
"738 359 CURVE SMOOTH",
"738 580 OFFCURVE",
"593 710 OFFCURVE",
"309 710 CURVE SMOOTH",
"69 710 LINE",
"69 0 LINE"
);
},
{
closed = 1;
nodes = (
"225 573 LINE",
"329 573 LINE SMOOTH",
"506 573 OFFCURVE",
"579 496 OFFCURVE",
"579 354 CURVE SMOOTH",
"579 221 OFFCURVE",
"497 139 OFFCURVE",
"355 139 CURVE SMOOTH",
"225 139 LINE"
);
}
);
width = 777;
}
);
leftMetricsKey = H;
rightMetricsKey = O;
unicode = 0044;
},
{
color = 3;
glyphname = H;
lastChange = "2019-02-19 16:30:20 +0000";
layers = (
{
background = {
anchors = (
{
name = bottom;
position = "{377, 0}";
},
{
name = center;
position = "{377, 362}";
},
{
name = top;
position = "{376, 712}";
},
{
name = topleft;
position = "{22, 712}";
}
);
paths = (
{
closed = 1;
nodes = (
"663 0 LINE",
"663 712 LINE",
"608 712 LINE",
"608 0 LINE"
);
},
{
closed = 1;
nodes = (
"144 0 LINE",
"144 712 LINE",
"90 712 LINE",
"90 0 LINE"
);
},
{
closed = 1;
nodes = (
"637 337 LINE",
"637 386 LINE",
"124 386 LINE",
"124 337 LINE"
);
}
);
};
layerId = "A3B50665-EA37-4AC6-885C-1233CA61B6BD";
paths = (
{
closed = 1;
nodes = (
"691 0 LINE",
"691 710 LINE",
"608 710 LINE",
"608 0 LINE"
);
},
{
closed = 1;
nodes = (
"162 0 LINE",
"162 710 LINE",
"79 710 LINE",
"79 0 LINE"
);
},
{
closed = 1;
nodes = (
"637 325 LINE",
"637 395 LINE",
"142 395 LINE",
"142 325 LINE"
);
}
);
width = 770;
},
{
background = {
anchors = (
{
name = bottom;
position = "{386, 0}";
},
{
name = center;
position = "{386, 362}";
},
{
name = top;
position = "{386, 712}";
},
{
name = topleft;
position = "{17, 712}";
}
);
paths = (
{
closed = 1;
nodes = (
"706 0 LINE",
"706 712 LINE",
"546 712 LINE",
"546 0 LINE"
);
},
{
closed = 1;
nodes = (
"225 0 LINE",
"225 712 LINE",
"66 712 LINE",
"66 0 LINE"
);
},
{
closed = 1;
nodes = (
"642 297 LINE",
"642 426 LINE",
"117 426 LINE",
"117 297 LINE"
);
}
);
};
layerId = "014D4A40-7C7F-4023-B30E-1F55CE5EA091";
paths = (
{
closed = 1;
nodes = (
"702 0 LINE",
"702 710 LINE",
"546 710 LINE",
"546 0 LINE"
);
},
{
closed = 1;
nodes = (
"225 0 LINE",
"225 710 LINE",
"69 710 LINE",
"69 0 LINE"
);
},
{
closed = 1;
nodes = (
"642 290 LINE",
"642 426 LINE",
"117 426 LINE",
"117 290 LINE"
);
}
);
width = 771;
}
);
rightMetricsKey = "=|";
unicode = 0048;
},
{
color = 3;
glyphname = I;
lastChange = "2019-02-12 20:35:57 +0000";
layers = (
{
layerId = "A3B50665-EA37-4AC6-885C-1233CA61B6BD";
paths = (
{
closed = 1;
nodes = (
"168 0 LINE",
"168 710 LINE",
"85 710 LINE",
"85 0 LINE"
);
}
);
width = 253;
},
{
layerId = "014D4A40-7C7F-4023-B30E-1F55CE5EA091";
paths = (
{
closed = 1;
nodes = (
"226 0 LINE",
"226 710 LINE",
"70 710 LINE",
"70 0 LINE"
);
}
);
width = 296;
}
);
rightMetricsKey = "=|";
unicode = 0049;
},
{
color = 3;
glyphname = K;
lastChange = "2019-02-19 16:31:15 +0000";
layers = (
{
background = {
anchors = (
{
name = bottom;
position = "{316, 0}";
},
{
name = top;
position = "{315, 712}";
}
);
paths = (
{
closed = 1;
nodes = (
"169 332 LINE",
"340 83 LINE SMOOTH",
"390 10 OFFCURVE",
"453 -10 OFFCURVE",
"533 -10 CURVE SMOOTH",
"590 -10 OFFCURVE",
"645 9 OFFCURVE",
"667 25 CURVE",
"630 143 LINE",
"607 132 OFFCURVE",
"583 124 OFFCURVE",
"557 124 CURVE SMOOTH",
"526 124 OFFCURVE",
"499 132 OFFCURVE",
"461 188 CURVE SMOOTH",
"302 421 LINE"
);
},
{
closed = 1;
nodes = (
"162 0 LINE",
"162 710 LINE",
"6 710 LINE",
"6 0 LINE"
);
},
{
closed = 1;
nodes = (
"131 183 LINE",
"264 326 LINE",
"634 712 LINE",
"440 712 LINE",
"133 385 LINE"
);
}
);
};
layerId = "A3B50665-EA37-4AC6-885C-1233CA61B6BD";
paths = (
{
closed = 1;
nodes = (
"592 712 LINE",
"487 712 LINE",
"143 367 LINE",
"143 263 LINE"
);
},
{
closed = 1;
nodes = (
"162 0 LINE",
"162 710 LINE",
"79 710 LINE",
"79 0 LINE"
);
},
{
closed = 1;
nodes = (
"581 -6 OFFCURVE",
"612 4 OFFCURVE",
"639 24 CURVE",
"617 84 LINE",
"593 71 OFFCURVE",
"575 65 OFFCURVE",
"554 65 CURVE SMOOTH",
"513 65 OFFCURVE",
"490 77 OFFCURVE",
"464 112 CURVE SMOOTH",
"244 412 LINE",
"188 353 LINE",
"405 63 LINE SMOOTH",
"441 14 OFFCURVE",
"482 -6 OFFCURVE",
"544 -6 CURVE SMOOTH"
);
}
);
width = 620;
},
{
background = {
paths = (
{
closed = 1;
nodes = (
"212 332 LINE",
"415 69 LINE SMOOTH",
"459 12 OFFCURVE",
"516 -10 OFFCURVE",
"596 -10 CURVE SMOOTH",
"657 -10 OFFCURVE",
"712 7 OFFCURVE",
"734 23 CURVE",
"697 139 LINE",
"674 128 OFFCURVE",
"650 122 OFFCURVE",
"624 122 CURVE SMOOTH",
"593 122 OFFCURVE",
"567 133 OFFCURVE",
"542 165 CURVE SMOOTH",
"341 421 LINE"
);
},
{
closed = 1;
nodes = (
"225 0 LINE",
"225 710 LINE",
"69 710 LINE",
"69 0 LINE"
);
},
{
closed = 1;
nodes = (
"194 187 LINE",
"697 712 LINE",
"507 712 LINE",
"196 385 LINE"
);
}
);
};
layerId = "014D4A40-7C7F-4023-B30E-1F55CE5EA091";
paths = (
{
closed = 1;
nodes = (
"695 710 LINE",
"496 710 LINE",
"195 402 LINE",
"194 200 LINE"
);
},
{
closed = 1;
nodes = (
"225 0 LINE",
"225 710 LINE",
"69 710 LINE",
"69 0 LINE"
);
},
{
closed = 1;
nodes = (
"653 -10 OFFCURVE",
"714 6 OFFCURVE",
"737 25 CURVE",
"700 143 LINE",
"677 130 OFFCURVE",
"653 124 OFFCURVE",
"628 124 CURVE SMOOTH",
"588 124 OFFCURVE",
"562 140 OFFCURVE",
"529 188 CURVE SMOOTH",
"357 437 LINE",
"232 332 LINE",
"407 83 LINE SMOOTH",
"451 18 OFFCURVE",
"511 -10 OFFCURVE",
"603 -10 CURVE SMOOTH"
);
}
);
width = 717;
}
);
leftMetricsKey = H;
unicode = 004B;
},
{
color = 3;
glyphname = L;
lastChange = "2019-02-19 16:31:20 +0000";
layers = (
{
background = {
anchors = (
{
name = bottom;
position = "{324, 0}";
},
{
name = center;
position = "{351, 357}";
},
{
name = top;
position = "{135, 712}";
},
{
name = topright;
position = "{253, 712}";
}
);
paths = (
{
closed = 1;
nodes = (
"534 0 LINE",
"534 48 LINE",
"162 48 LINE",
"162 712 LINE",
"108 712 LINE",
"108 0 LINE"
);
}
);
};
layerId = "A3B50665-EA37-4AC6-885C-1233CA61B6BD";
paths = (
{
closed = 1;
nodes = (
"494 0 LINE",
"504 72 LINE",
"162 72 LINE",
"162 712 LINE",
"79 712 LINE",
"79 0 LINE"
);
}
);
width = 504;
},
{
background = {
anchors = (
{
name = bottom;
position = "{309, 0}";
},
{
name = center;
position = "{391, 357}";
},
{
name = top;
position = "{143, 712}";
},
{
name = topright;
position = "{316, 712}";
}
);
paths = (
{
closed = 1;
nodes = (
"540 0 LINE",
"540 132 LINE",
"225 132 LINE",
"225 712 LINE",
"63 712 LINE",
"63 0 LINE"
);
}
);
};
layerId = "014D4A40-7C7F-4023-B30E-1F55CE5EA091";
paths = (
{
closed = 1;
nodes = (
"530 0 LINE",
"540 136 LINE",
"225 136 LINE",
"225 710 LINE",
"69 710 LINE",
"69 0 LINE"
);
}
);
width = 563;
}
);
leftMetricsKey = H;
unicode = 004C;
},
{
color = 3;
glyphname = M;
lastChange = "2019-02-19 16:31:58 +0000";
layers = (
{
background = {
paths = (
{
closed = 1;
nodes = (
"148 0 LINE",
"178 652 LINE",
"127 648 LINE",
"426 0 LINE",
"508 0 LINE",
"814 647 LINE",
"760 652 LINE",
"790 0 LINE",
"871 0 LINE",
"841 712 LINE",
"762 712 LINE",
"441 30 LINE",
"499 30 LINE",
"184 712 LINE",
"101 712 LINE",
"71 0 LINE"
);
}
);
};
layerId = "A3B50665-EA37-4AC6-885C-1233CA61B6BD";
paths = (
{
closed = 1;
nodes = (
"146 0 LINE",
"176 652 LINE",
"129 648 LINE",
"428 0 LINE",
"506 0 LINE",
"812 647 LINE",
"762 652 LINE",
"792 0 LINE",
"871 0 LINE",
"841 712 LINE",
"762 712 LINE",
"441 30 LINE",
"499 30 LINE",
"184 712 LINE",
"101 712 LINE",
"71 0 LINE"
);
}
);
width = 942;
},
{
background = {
anchors = (
{
name = bottom;
position = "{485, 0}";
},
{
name = top;
position = "{485, 712}";
}
);
paths = (
{
closed = 1;
nodes = (
"224 0 LINE",
"224 470 LINE",
"185 461 LINE",
"429 0 LINE",
"540 0 LINE",
"780 461 LINE",
"745 470 LINE",
"745 0 LINE",
"897 0 LINE",
"897 712 LINE",
"750 712 LINE",
"448 120 LINE",
"528 120 LINE",
"219 712 LINE",
"72 712 LINE",
"72 0 LINE"
);
}
);
};
guideLines = (
{
angle = -88.391;
position = "{735, 356}";
},
{
angle = 88.391;
position = "{234, 356}";
}
);
layerId = "014D4A40-7C7F-4023-B30E-1F55CE5EA091";
paths = (
{
closed = 1;
nodes = (
"219 0 LINE",
"232 470 LINE",
"193 461 LINE",
"425 0 LINE",
"536 0 LINE",
"762 461 LINE",
"730 470 LINE",
"743 0 LINE",
"897 0 LINE",
"877 712 LINE",
"744 712 LINE",
"447 102 LINE",
"535 102 LINE",
"226 712 LINE",
"92 712 LINE",
"72 0 LINE"
);
}
);
width = 970;
}
);
unicode = 004D;
},
{
color = 4;
glyphname = N;
lastChange = "2019-02-23 22:10:05 +0000";
layers = (
{
anchors = (
{
name = bottom;
position = "{356, 0}";
},
{
name = top;
position = "{356, 712}";
}
);
background = {
paths = (
{
closed = 1;
nodes = (
"157 626 LINE",
"122 621 LINE",
"614 0 LINE",
"681 0 LINE",
"681 710 LINE",
"603 710 LINE",
"603 83 LINE",
"638 89 LINE",
"152 710 LINE",
"79 710 LINE",
"79 0 LINE",
"157 0 LINE"
);
}
);
};
layerId = "A3B50665-EA37-4AC6-885C-1233CA61B6BD";
paths = (
{
closed = 1;
nodes = (
"603 84 LINE",
"638 89 LINE",
"146 710 LINE",
"79 710 LINE",
"79 0 LINE",
"157 0 LINE",
"157 627 LINE",
"122 621 LINE",
"614 0 LINE",
"681 0 LINE",
"681 710 LINE",
"603 710 LINE"
);
}
);
width = 760;
},
{
anchors = (
{
name = bottom;
position = "{378, 0}";
},
{
name = top;
position = "{377, 712}";
}
);
background = {
paths = (
{
closed = 1;
nodes = (
"542 169 LINE",
"598 212 LINE",
"205 710 LINE",
"69 710 LINE",
"69 0 LINE",
"219 0 LINE",
"219 541 LINE",
"163 498 LINE",
"556 0 LINE",
"692 0 LINE",
"692 710 LINE",
"542 710 LINE"
);
}
);
};
layerId = "014D4A40-7C7F-4023-B30E-1F55CE5EA091";
paths = (
{
closed = 1;
nodes = (
"542 143 LINE",
"598 186 LINE",
"205 710 LINE",
"69 710 LINE",
"69 0 LINE",
"219 0 LINE",
"219 567 LINE",
"163 524 LINE",
"556 0 LINE",
"692 0 LINE",
"692 710 LINE",
"542 710 LINE"
);
}
);
width = 761;
}
);
leftKerningGroup = H;
leftMetricsKey = H;
rightKerningGroup = H;
rightMetricsKey = H;
unicode = 004E;
},
{
color = 3;
glyphname = O;
lastChange = "2019-02-19 16:30:43 +0000";
layers = (
{
background = {
paths = (
{
closed = 1;
nodes = (
"628 -8 OFFCURVE",
"781 153 OFFCURVE",
"781 361 CURVE SMOOTH",
"781 569 OFFCURVE",
"633 720 OFFCURVE",
"427 720 CURVE SMOOTH",
"215 720 OFFCURVE",
"59 552 OFFCURVE",
"59 345 CURVE SMOOTH",
"59 141 OFFCURVE",
"208 -8 OFFCURVE",
"415 -8 CURVE SMOOTH"
);
},
{
closed = 1;
nodes = (
"253 67 OFFCURVE",
"141 187 OFFCURVE",
"141 346 CURVE SMOOTH",
"141 517 OFFCURVE",
"260 645 OFFCURVE",
"425 645 CURVE SMOOTH",
"586 645 OFFCURVE",
"699 519 OFFCURVE",
"699 358 CURVE SMOOTH",
"699 183 OFFCURVE",
"581 67 OFFCURVE",
"415 67 CURVE SMOOTH"
);
}
);
};
guideLines = (
{
angle = 90;
position = "{736, 356}";
},
{
angle = 90;
position = "{799, 356}";
}
);
layerId = "A3B50665-EA37-4AC6-885C-1233CA61B6BD";
paths = (
{
closed = 1;
nodes = (
"628 -8 OFFCURVE",
"781 153 OFFCURVE",
"781 361 CURVE SMOOTH",
"781 569 OFFCURVE",
"633 720 OFFCURVE",
"427 720 CURVE SMOOTH",
"215 720 OFFCURVE",
"59 552 OFFCURVE",
"59 345 CURVE SMOOTH",
"59 141 OFFCURVE",
"208 -8 OFFCURVE",
"415 -8 CURVE SMOOTH"
);
},
{
closed = 1;
nodes = (
"254 68 OFFCURVE",
"142 188 OFFCURVE",
"142 346 CURVE SMOOTH",
"142 516 OFFCURVE",
"261 644 OFFCURVE",
"425 644 CURVE SMOOTH",
"585 644 OFFCURVE",
"698 518 OFFCURVE",
"698 358 CURVE SMOOTH",
"698 184 OFFCURVE",
"580 68 OFFCURVE",
"415 68 CURVE SMOOTH"
);
}
);
width = 840;
},
{
background = {
paths = (
{
closed = 1;
nodes = (
"641 -10 OFFCURVE",
"781 174 OFFCURVE",
"781 362 CURVE SMOOTH",
"781 578 OFFCURVE",
"626 720 OFFCURVE",
"416 720 CURVE SMOOTH",
"180 720 OFFCURVE",
"39 534 OFFCURVE",
"39 346 CURVE SMOOTH",
"39 131 OFFCURVE",
"193 -10 OFFCURVE",
"404 -10 CURVE SMOOTH"
);
},
{
closed = 1;
nodes = (
"288 132 OFFCURVE",
"207 213 OFFCURVE",
"207 349 CURVE SMOOTH",
"207 481 OFFCURVE",
"288 580 OFFCURVE",
"414 580 CURVE SMOOTH",
"530 580 OFFCURVE",
"613 496 OFFCURVE",
"613 359 CURVE SMOOTH",
"613 224 OFFCURVE",
"537 132 OFFCURVE",
"406 132 CURVE SMOOTH"
);
}
);
};
layerId = "014D4A40-7C7F-4023-B30E-1F55CE5EA091";
paths = (
{
closed = 1;
nodes = (
"641 -10 OFFCURVE",
"781 174 OFFCURVE",
"781 362 CURVE SMOOTH",
"781 578 OFFCURVE",
"626 720 OFFCURVE",
"416 720 CURVE SMOOTH",
"180 720 OFFCURVE",
"39 534 OFFCURVE",
"39 346 CURVE SMOOTH",
"39 131 OFFCURVE",
"193 -10 OFFCURVE",
"404 -10 CURVE SMOOTH"
);
},
{
closed = 1;
nodes = (
"283 127 OFFCURVE",
"198 210 OFFCURVE",
"198 349 CURVE SMOOTH",
"198 483 OFFCURVE",
"283 585 OFFCURVE",
"414 585 CURVE SMOOTH",
"535 585 OFFCURVE",
"622 499 OFFCURVE",
"622 359 CURVE SMOOTH",
"622 221 OFFCURVE",
"542 127 OFFCURVE",
"406 127 CURVE SMOOTH"
);
}
);
width = 820;
}
);
rightMetricsKey = "=|";
unicode = 004F;
},
{
glyphname = R;
lastChange = "2019-02-07 12:44:15 +0000";
layers = (
{
hints = (
{
horizontal = 1;
place = "{0, 21}";
target = up;
type = BottomGhost;
},
{
horizontal = 1;
place = "{432, 75}";
type = Stem;
},
{
place = "{72, 77}";
type = Stem;
},
{
place = "{345, 75}";
type = Stem;
},
{
horizontal = 1;
place = "{498, -20}";
target = down;
type = TopGhost;
}
);
layerId = "A3B50665-EA37-4AC6-885C-1233CA61B6BD";
paths = (
{
closed = 1;
nodes = (
"205 507 OFFCURVE",
"165 481 OFFCURVE",
"143 444 CURVE",
"143 480 LINE SMOOTH",
"143 489 OFFCURVE",
"135 498 OFFCURVE",
"125 498 CURVE SMOOTH",
"90 498 LINE SMOOTH",
"80 498 OFFCURVE",
"72 488 OFFCURVE",
"72 478 CURVE SMOOTH",
"72 18 LINE SMOOTH",
"72 9 OFFCURVE",
"80 0 OFFCURVE",
"90 0 CURVE SMOOTH",
"130 0 LINE SMOOTH",
"141 0 OFFCURVE",
"149 9 OFFCURVE",
"149 18 CURVE SMOOTH",
"149 296 LINE SMOOTH",
"149 330 OFFCURVE",
"152 357 OFFCURVE",
"158 377 CURVE SMOOTH",
"168 414 OFFCURVE",
"194 432 OFFCURVE",
"252 432 CURVE SMOOTH",
"318 432 OFFCURVE",
"345 410 OFFCURVE",
"345 344 CURVE SMOOTH",
"345 336 OFFCURVE",
"353 326 OFFCURVE",
"363 326 CURVE SMOOTH",
"400 326 LINE SMOOTH",
"411 326 OFFCURVE",
"420 336 OFFCURVE",
"420 345 CURVE SMOOTH",
"420 360 LINE SMOOTH",
"420 455 OFFCURVE",
"371 507 OFFCURVE",
"270 507 CURVE SMOOTH"
);
}
);
width = 427;
},
{
hints = (
{
horizontal = 1;
place = "{0, 21}";
target = up;
type = BottomGhost;
},
{
horizontal = 1;
place = "{389, 109}";
type = Stem;
},
{
place = "{54, 134}";
type = Stem;
},
{
place = "{314, 129}";
type = Stem;
},
{
horizontal = 1;
place = "{389, 125}";
type = Stem;
},
{
place = "{54, 115}";
type = Stem;
}
);
layerId = "014D4A40-7C7F-4023-B30E-1F55CE5EA091";
paths = (
{
closed = 1;
nodes = (
"225 514 OFFCURVE",
"186 480 OFFCURVE",
"169 441 CURVE",
"169 473 LINE SMOOTH",
"169 489 OFFCURVE",
"159 498 OFFCURVE",
"134 498 CURVE SMOOTH",
"87 498 LINE SMOOTH",
"62 498 OFFCURVE",
"54 481 OFFCURVE",
"54 464 CURVE SMOOTH",
"54 33 LINE SMOOTH",
"54 17 OFFCURVE",
"62 0 OFFCURVE",
"87 0 CURVE SMOOTH",
"155 0 LINE SMOOTH",
"180 0 OFFCURVE",
"188 17 OFFCURVE",
"188 33 CURVE SMOOTH",
"188 280 LINE SMOOTH",
"188 309 OFFCURVE",
"190 328 OFFCURVE",
"194 345 CURVE SMOOTH",
"198 364 OFFCURVE",
"209 389 OFFCURVE",
"253 389 CURVE SMOOTH",
"308 389 OFFCURVE",
"314 373 OFFCURVE",
"314 340 CURVE SMOOTH",
"314 329 OFFCURVE",
"322 312 OFFCURVE",
"347 312 CURVE SMOOTH",
"410 312 LINE SMOOTH",
"434 312 OFFCURVE",
"443 328 OFFCURVE",
"443 345 CURVE SMOOTH",
"443 355 LINE SMOOTH",
"443 459 OFFCURVE",
"393 514 OFFCURVE",
"299 514 CURVE SMOOTH"
);
}
);
width = 443;
}
);
note = R;
unicode = 0052;
},
{
glyphname = S;
lastChange = "2019-02-07 12:44:15 +0000";
layers = (
{
hints = (
{
horizontal = 1;
place = "{-8, 74}";
type = Stem;
},
{
horizontal = 1;
place = "{433, 74}";
type = Stem;
},
{
place = "{65, 70}";
type = Stem;
},
{
place = "{385, 80}";
type = Stem;
},
{
place = "{65, 80}";
type = Stem;
}
);
layerId = "A3B50665-EA37-4AC6-885C-1233CA61B6BD";
paths = (
{
closed = 1;
nodes = (
"105 507 OFFCURVE",
"65 435 OFFCURVE",
"65 373 CURVE SMOOTH",
"65 303 OFFCURVE",
"103 271 OFFCURVE",
"187 241 CURVE SMOOTH",
"294 201 LINE SMOOTH",
"366 174 OFFCURVE",
"385 159 OFFCURVE",
"385 131 CURVE SMOOTH",
"385 100 OFFCURVE",
"371 66 OFFCURVE",
"263 66 CURVE SMOOTH",
"138 66 OFFCURVE",
"134 110 OFFCURVE",
"134 154 CURVE SMOOTH",
"134 163 OFFCURVE",
"126 172 OFFCURVE",
"115 172 CURVE SMOOTH",
"78 172 LINE SMOOTH",
"68 172 OFFCURVE",
"60 163 OFFCURVE",
"60 153 CURVE SMOOTH",
"60 107 OFFCURVE",
"65 -8 OFFCURVE",
"263 -8 CURVE SMOOTH",
"420 -8 OFFCURVE",
"464 64 OFFCURVE",
"464 126 CURVE SMOOTH",
"464 198 OFFCURVE",
"422 231 OFFCURVE",
"337 261 CURVE SMOOTH",
"226 303 LINE SMOOTH",
"162 328 OFFCURVE",
"144 341 OFFCURVE",
"144 368 CURVE SMOOTH",
"144 399 OFFCURVE",
"156 433 OFFCURVE",
"261 433 CURVE SMOOTH",
"386 433 OFFCURVE",
"386 388 OFFCURVE",
"386 344 CURVE SMOOTH",
"386 336 OFFCURVE",
"394 326 OFFCURVE",
"404 326 CURVE SMOOTH",
"442 326 LINE SMOOTH",
"452 326 OFFCURVE",
"460 336 OFFCURVE",
"460 345 CURVE SMOOTH",
"460 391 OFFCURVE",
"459 507 OFFCURVE",
"262 507 CURVE SMOOTH"
);
}
);
width = 525;
},
{
hints = (
{
horizontal = 1;
place = "{-8, 123}";
type = Stem;
},
{
horizontal = 1;
place = "{391, 123}";
type = Stem;
},
{
place = "{36, 141}";
type = Stem;
},
{
place = "{346, 129}";
type = Stem;
},
{
place = "{36, 126}";
type = Stem;
},
{
place = "{346, 141}";
type = Stem;
}
);
layerId = "014D4A40-7C7F-4023-B30E-1F55CE5EA091";
paths = (
{
closed = 1;
nodes = (
"74 514 OFFCURVE",
"36 421 OFFCURVE",
"36 363 CURVE SMOOTH",
"36 295 OFFCURVE",
"60 246 OFFCURVE",
"181 216 CURVE SMOOTH",
"269 193 LINE SMOOTH",
"318 181 OFFCURVE",
"346 173 OFFCURVE",
"346 148 CURVE SMOOTH",
"346 121 OFFCURVE",
"305 114 OFFCURVE",
"257 114 CURVE SMOOTH",
"172 114 OFFCURVE",
"163 133 OFFCURVE",
"163 166 CURVE SMOOTH",
"163 177 OFFCURVE",
"155 194 OFFCURVE",
"130 194 CURVE SMOOTH",
"67 194 LINE SMOOTH",
"42 194 OFFCURVE",
"34 177 OFFCURVE",
"34 161 CURVE SMOOTH",
"34 102 OFFCURVE",
"45 -8 OFFCURVE",
"256 -8 CURVE SMOOTH",
"449 -8 OFFCURVE",
"487 85 OFFCURVE",
"487 147 CURVE SMOOTH",
"487 215 OFFCURVE",
"456 253 OFFCURVE",
"334 284 CURVE SMOOTH",
"258 304 LINE SMOOTH",
"206 318 OFFCURVE",
"177 327 OFFCURVE",
"177 354 CURVE SMOOTH",
"177 385 OFFCURVE",
"218 391 OFFCURVE",
"259 391 CURVE SMOOTH",
"337 391 OFFCURVE",
"346 373 OFFCURVE",
"346 340 CURVE SMOOTH",
"346 329 OFFCURVE",
"353 312 OFFCURVE",
"378 312 CURVE SMOOTH",
"441 312 LINE SMOOTH",
"466 312 OFFCURVE",
"474 328 OFFCURVE",
"474 345 CURVE SMOOTH",
"474 404 OFFCURVE",
"464 514 OFFCURVE",
"260 514 CURVE SMOOTH"
);
}
);
width = 511;
}
);
note = S;
unicode = 0053;
},
{
color = 4;
glyphname = a;
lastChange = "2019-02-19 20:12:15 +0000";
layers = (
{
background = {
paths = (
{
closed = 1;
nodes = (
"421 498 LINE",
"417 416 LINE",
"423 423 LINE",
"401 476 OFFCURVE",
"350 507 OFFCURVE",
"283 507 CURVE SMOOTH",
"154 507 OFFCURVE",
"45 401 OFFCURVE",
"45 225 CURVE SMOOTH",
"45 82 OFFCURVE",
"122 -8 OFFCURVE",
"238 -8 CURVE SMOOTH",
"330 -8 OFFCURVE",
"406 50 OFFCURVE",
"426 150 CURVE",
"416 154 LINE",
"416 0 LINE",
"492 0 LINE",
"492 498 LINE"
);
},
{
closed = 1;
nodes = (
"368 435 OFFCURVE",
"414 387 OFFCURVE",
"414 284 CURVE SMOOTH",
"414 140 OFFCURVE",
"331 64 OFFCURVE",
"252 64 CURVE SMOOTH",
"172 64 OFFCURVE",
"126 126 OFFCURVE",
"126 231 CURVE SMOOTH",
"126 349 OFFCURVE",
"186 435 OFFCURVE",
"289 435 CURVE SMOOTH"
);
}
);
};
hints = (
{
horizontal = 1;
place = "{-8, 75}";
type = Stem;
},
{
horizontal = 1;
place = "{432, 75}";
type = Stem;
},
{
horizontal = 1;
place = "{664, -20}";
target = down;
type = TopGhost;
},
{
place = "{64, 77}";
type = Stem;
},
{
place = "{404, 77}";
type = Stem;
},
{
horizontal = 1;
place = "{0, 21}";
target = up;
type = BottomGhost;
}
);
layerId = "A3B50665-EA37-4AC6-885C-1233CA61B6BD";
paths = (
{
closed = 1;
nodes = (
"421 498 LINE",
"417 416 LINE",
"423 423 LINE",
"401 476 OFFCURVE",
"349 507 OFFCURVE",
"280 507 CURVE SMOOTH",
"141 507 OFFCURVE",
"45 392 OFFCURVE",
"45 225 CURVE SMOOTH",
"45 84 OFFCURVE",
"122 -8 OFFCURVE",
"241 -8 CURVE SMOOTH",
"336 -8 OFFCURVE",
"407 53 OFFCURVE",
"426 150 CURVE",
"416 154 LINE",
"416 0 LINE",
"492 0 LINE",
"492 498 LINE"
);
},
{
closed = 1;
nodes = (
"371 435 OFFCURVE",
"414 383 OFFCURVE",
"414 284 CURVE SMOOTH",
"414 158 OFFCURVE",
"345 64 OFFCURVE",
"255 64 CURVE SMOOTH",
"174 64 OFFCURVE",
"126 125 OFFCURVE",
"126 231 CURVE SMOOTH",
"126 354 OFFCURVE",
"190 435 OFFCURVE",
"289 435 CURVE SMOOTH"
);
}
);
width = 560;
},
{
background = {
paths = (
{
closed = 1;
nodes = (
"430 506 LINE",
"420 422 LINE",
"430 440 LINE",
"410 486 OFFCURVE",
"364 516 OFFCURVE",
"292 516 CURVE SMOOTH",
"146 516 OFFCURVE",
"31 392 OFFCURVE",
"31 226 CURVE SMOOTH",
"31 79 OFFCURVE",
"114 -10 OFFCURVE",
"247 -10 CURVE SMOOTH",
"337 -10 OFFCURVE",
"416 41 OFFCURVE",
"437 121 CURVE",
"418 155 LINE",
"418 -2 LINE",
"563 -2 LINE",
"563 506 LINE"
);
},
{
closed = 1;
nodes = (
"382 389 OFFCURVE",
"417 352 OFFCURVE",
"417 272 CURVE SMOOTH",
"417 189 OFFCURVE",
"361 117 OFFCURVE",
"288 117 CURVE SMOOTH",
"225 117 OFFCURVE",
"186 160 OFFCURVE",
"186 235 CURVE SMOOTH",
"186 326 OFFCURVE",
"241 389 OFFCURVE",
"316 389 CURVE SMOOTH"
);
}
);
};
hints = (
{
horizontal = 1;
place = "{-8, 129}";
type = Stem;
},
{
horizontal = 1;
place = "{386, 129}";
type = Stem;
},
{
horizontal = 1;
place = "{672, -20}";
target = down;
type = TopGhost;
},
{
place = "{46, 134}";
type = Stem;
},
{
place = "{366, 134}";
type = Stem;
},
{
horizontal = 1;
place = "{0, 21}";
target = up;
type = BottomGhost;
},
{
place = "{385, 115}";
type = Stem;
}
);
layerId = "014D4A40-7C7F-4023-B30E-1F55CE5EA091";
paths = (
{
closed = 1;
nodes = (
"440 506 LINE",
"420 422 LINE",
"430 440 LINE",
"410 484 OFFCURVE",
"359 516 OFFCURVE",
"287 516 CURVE SMOOTH",
"121 516 OFFCURVE",
"31 378 OFFCURVE",
"31 239 CURVE SMOOTH",
"31 89 OFFCURVE",
"123 -10 OFFCURVE",
"262 -10 CURVE SMOOTH",
"350 -10 OFFCURVE",
"419 44 OFFCURVE",
"440 124 CURVE",
"418 155 LINE",
"418 -2 LINE",
"563 -2 LINE",
"563 506 LINE"
);
},
{
closed = 1;
nodes = (
"378 390 OFFCURVE",
"417 351 OFFCURVE",
"417 269 CURVE SMOOTH",
"417 178 OFFCURVE",
"363 118 OFFCURVE",
"292 118 CURVE SMOOTH",
"227 118 OFFCURVE",
"186 163 OFFCURVE",
"186 242 CURVE SMOOTH",
"186 323 OFFCURVE",
"232 390 OFFCURVE",
"312 390 CURVE SMOOTH"
);
}
);
width = 619;
}
);
leftKerningGroup = o;
leftMetricsKey = o;
note = d;
rightMetricsKey = "=|n";
unicode = 0061;
},
{
color = 4;
glyphname = b;
lastChange = "2019-02-19 20:12:15 +0000";
layers = (
{
background = {
paths = (
{
closed = 1;
nodes = (
"139 1 LINE",
"143 83 LINE",
"137 76 LINE",
"159 23 OFFCURVE",
"211 -8 OFFCURVE",
"280 -8 CURVE SMOOTH",
"419 -8 OFFCURVE",
"515 107 OFFCURVE",
"515 274 CURVE SMOOTH",
"515 415 OFFCURVE",
"438 507 OFFCURVE",
"319 507 CURVE SMOOTH",
"224 507 OFFCURVE",
"153 446 OFFCURVE",
"134 349 CURVE",
"144 345 LINE",
"144 499 LINE",
"68 499 LINE",
"68 1 LINE"
);
},
{
closed = 1;
nodes = (
"189 64 OFFCURVE",
"146 116 OFFCURVE",
"146 215 CURVE SMOOTH",
"146 341 OFFCURVE",
"215 435 OFFCURVE",
"305 435 CURVE SMOOTH",
"386 435 OFFCURVE",
"434 374 OFFCURVE",
"434 268 CURVE SMOOTH",
"434 145 OFFCURVE",
"370 64 OFFCURVE",
"271 64 CURVE SMOOTH"
);
}
);
};
hints = (
{
horizontal = 1;
place = "{0, 21}";
target = up;
type = BottomGhost;
},
{
horizontal = 1;
place = "{432, 75}";
type = Stem;
},
{
horizontal = 1;
place = "{664, -20}";
target = down;
type = TopGhost;
},
{
place = "{72, 77}";
type = Stem;
},
{
place = "{412, 77}";
type = Stem;
},
{
horizontal = 1;
place = "{-8, 75}";
type = Stem;
}
);
layerId = "A3B50665-EA37-4AC6-885C-1233CA61B6BD";
paths = (
{
closed = 1;
nodes = (
"139 1 LINE",
"143 83 LINE",
"137 76 LINE",
"159 23 OFFCURVE",
"211 -8 OFFCURVE",
"280 -8 CURVE SMOOTH",
"419 -8 OFFCURVE",
"514 103 OFFCURVE",
"514 274 CURVE SMOOTH",
"514 415 OFFCURVE",
"440 507 OFFCURVE",
"324 507 CURVE SMOOTH",
"226 507 OFFCURVE",
"151 446 OFFCURVE",
"131 349 CURVE",
"145 344 LINE",
"145 710 LINE",
"68 710 LINE",
"68 1 LINE"
);
},
{
closed = 1;
nodes = (
"189 64 OFFCURVE",
"146 116 OFFCURVE",
"146 215 CURVE SMOOTH",
"146 326 OFFCURVE",
"203 435 OFFCURVE",
"305 435 CURVE SMOOTH",
"386 435 OFFCURVE",
"434 374 OFFCURVE",
"434 268 CURVE SMOOTH",
"434 143 OFFCURVE",
"370 64 OFFCURVE",
"273 64 CURVE SMOOTH"
);
}
);
width = 559;
},
{
background = {
paths = (
{
closed = 1;
nodes = (
"179 0 LINE",
"199 84 LINE",
"189 66 LINE",
"209 22 OFFCURVE",
"260 -10 OFFCURVE",
"332 -10 CURVE SMOOTH",
"498 -10 OFFCURVE",
"588 128 OFFCURVE",
"588 267 CURVE SMOOTH",
"588 417 OFFCURVE",
"496 516 OFFCURVE",
"357 516 CURVE SMOOTH",
"269 516 OFFCURVE",
"200 462 OFFCURVE",
"179 382 CURVE",
"201 351 LINE",
"201 508 LINE",
"56 508 LINE",
"56 0 LINE"
);
},
{
closed = 1;
nodes = (
"241 116 OFFCURVE",
"202 155 OFFCURVE",
"202 237 CURVE SMOOTH",
"202 328 OFFCURVE",
"256 388 OFFCURVE",
"327 388 CURVE SMOOTH",
"392 388 OFFCURVE",
"433 343 OFFCURVE",
"433 264 CURVE SMOOTH",
"433 183 OFFCURVE",
"387 116 OFFCURVE",
"307 116 CURVE SMOOTH"
);
}
);
};
hints = (
{
horizontal = 1;
place = "{-8, 129}";
type = Stem;
},
{
horizontal = 1;
place = "{386, 129}";
type = Stem;
},
{
horizontal = 1;
place = "{672, -20}";
target = down;
type = TopGhost;
},
{
place = "{54, 134}";
type = Stem;
},
{
place = "{374, 134}";
type = Stem;
},
{
horizontal = 1;
place = "{0, 21}";
target = up;
type = BottomGhost;
},
{
place = "{54, 115}";
type = Stem;
}
);
layerId = "014D4A40-7C7F-4023-B30E-1F55CE5EA091";
paths = (
{
closed = 1;
nodes = (
"179 0 LINE",
"199 84 LINE",
"189 66 LINE",
"209 22 OFFCURVE",
"259 -10 OFFCURVE",
"340 -10 CURVE SMOOTH",
"476 -10 OFFCURVE",
"585 94 OFFCURVE",
"585 267 CURVE SMOOTH",
"585 417 OFFCURVE",
"495 516 OFFCURVE",
"365 516 CURVE SMOOTH",
"277 516 OFFCURVE",
"200 462 OFFCURVE",
"176 382 CURVE",
"202 351 LINE",
"202 710 LINE",
"56 710 LINE",
"56 0 LINE"
);
},
{
closed = 1;
nodes = (
"241 117 OFFCURVE",
"202 156 OFFCURVE",
"202 238 CURVE SMOOTH",
"202 319 OFFCURVE",
"248 389 OFFCURVE",
"327 389 CURVE SMOOTH",
"392 389 OFFCURVE",
"433 344 OFFCURVE",
"433 267 CURVE SMOOTH",
"433 178 OFFCURVE",
"386 117 OFFCURVE",
"310 117 CURVE SMOOTH"
);
}
);
width = 616;
}
);
leftMetricsKey = h;
note = b;
rightKerningGroup = o;
rightMetricsKey = o;
unicode = 0062;
},
{
color = 4;
glyphname = c;
lastChange = "2019-02-19 20:12:15 +0000";
layers = (
{
background = {
paths = (
{
closed = 1;
nodes = (
"353 -8 OFFCURVE",
"424 19 OFFCURVE",
"449 46 CURVE",
"421 108 LINE",
"381 80 OFFCURVE",
"339 64 OFFCURVE",
"291 64 CURVE SMOOTH",
"186 64 OFFCURVE",
"128 126 OFFCURVE",
"128 239 CURVE SMOOTH",
"128 355 OFFCURVE",
"195 435 OFFCURVE",
"297 435 CURVE SMOOTH",
"345 435 OFFCURVE",
"386 421 OFFCURVE",
"420 394 CURVE",
"454 454 LINE",
"420 488 OFFCURVE",
"359 507 OFFCURVE",
"304 507 CURVE SMOOTH",
"151 507 OFFCURVE",
"47 393 OFFCURVE",
"47 233 CURVE SMOOTH",
"47 84 OFFCURVE",
"140 -8 OFFCURVE",
"284 -8 CURVE SMOOTH"
);
}
);
};
guideLines = (
{
angle = 90;
position = "{429, 142}";
}
);
layerId = "A3B50665-EA37-4AC6-885C-1233CA61B6BD";
paths = (
{
closed = 1;
nodes = (
"359 -8 OFFCURVE",
"419 19 OFFCURVE",
"444 46 CURVE",
"416 108 LINE",
"377 80 OFFCURVE",
"335 64 OFFCURVE",
"288 64 CURVE SMOOTH",
"185 64 OFFCURVE",
"128 126 OFFCURVE",
"128 239 CURVE SMOOTH",
"128 355 OFFCURVE",
"194 435 OFFCURVE",
"294 435 CURVE SMOOTH",
"341 435 OFFCURVE",
"382 421 OFFCURVE",
"415 394 CURVE",
"449 458 LINE",
"415 492 OFFCURVE",
"355 507 OFFCURVE",
"301 507 CURVE SMOOTH",
"149 507 OFFCURVE",
"45 395 OFFCURVE",
"45 233 CURVE SMOOTH",
"45 84 OFFCURVE",
"135 -8 OFFCURVE",
"285 -8 CURVE SMOOTH"
);
}
);
width = 461;
},
{
background = {
paths = (
{
closed = 1;
nodes = (
"144 516 OFFCURVE",
"31 394 OFFCURVE",
"31 241 CURVE SMOOTH",
"31 87 OFFCURVE",
"127 -10 OFFCURVE",
"285 -10 CURVE SMOOTH",
"442 -10 OFFCURVE",
"548 101 OFFCURVE",
"548 263 CURVE SMOOTH",
"548 419 OFFCURVE",
"455 516 OFFCURVE",
"300 516 CURVE SMOOTH"
);
},
{
closed = 1;
nodes = (
"223 117 OFFCURVE",
"181 163 OFFCURVE",
"181 242 CURVE SMOOTH",
"181 327 OFFCURVE",
"229 389 OFFCURVE",
"296 389 CURVE SMOOTH",
"362 389 OFFCURVE",
"399 344 OFFCURVE",
"399 264 CURVE SMOOTH",
"399 174 OFFCURVE",
"358 117 OFFCURVE",
"289 117 CURVE SMOOTH"
);
}
);
};
layerId = "014D4A40-7C7F-4023-B30E-1F55CE5EA091";
paths = (
{
closed = 1;
nodes = (
"354 -10 OFFCURVE",
"426 9 OFFCURVE",
"476 48 CURVE",
"423 163 LINE",
"381 134 OFFCURVE",
"341 121 OFFCURVE",
"294 121 CURVE SMOOTH",
"225 121 OFFCURVE",
"183 172 OFFCURVE",
"183 244 CURVE SMOOTH",
"183 335 OFFCURVE",
"239 386 OFFCURVE",
"315 386 CURVE SMOOTH",
"352 386 OFFCURVE",
"386 375 OFFCURVE",
"419 346 CURVE",
"481 460 LINE",
"448 492 OFFCURVE",
"388 516 OFFCURVE",
"314 516 CURVE SMOOTH",
"141 516 OFFCURVE",
"31 394 OFFCURVE",
"31 238 CURVE SMOOTH",
"31 94 OFFCURVE",
"120 -10 OFFCURVE",
"294 -10 CURVE SMOOTH"
);
}
);
width = 486;
}
);
leftKerningGroup = o;
leftMetricsKey = o;
unicode = 0063;
},
{
color = 4;
glyphname = d;
lastChange = "2019-02-19 20:12:15 +0000";
layers = (
{
background = {
paths = (
{
closed = 1;
nodes = (
"421 498 LINE",
"417 416 LINE",
"423 423 LINE",
"401 476 OFFCURVE",
"349 507 OFFCURVE",
"280 507 CURVE SMOOTH",
"141 507 OFFCURVE",
"45 392 OFFCURVE",
"45 225 CURVE SMOOTH",
"45 84 OFFCURVE",
"122 -8 OFFCURVE",
"241 -8 CURVE SMOOTH",
"336 -8 OFFCURVE",
"407 53 OFFCURVE",
"426 150 CURVE",
"416 154 LINE",
"416 0 LINE",
"492 0 LINE",
"492 498 LINE"
);
},
{
closed = 1;
nodes = (
"371 435 OFFCURVE",
"414 383 OFFCURVE",
"414 284 CURVE SMOOTH",
"414 158 OFFCURVE",
"345 64 OFFCURVE",
"255 64 CURVE SMOOTH",
"174 64 OFFCURVE",
"126 125 OFFCURVE",
"126 231 CURVE SMOOTH",
"126 354 OFFCURVE",
"190 435 OFFCURVE",
"289 435 CURVE SMOOTH"
);
}
);
};
hints = (
{
horizontal = 1;
place = "{-8, 75}";
type = Stem;
},
{
horizontal = 1;
place = "{432, 75}";
type = Stem;
},
{
horizontal = 1;
place = "{664, -20}";
target = down;
type = TopGhost;
},
{
place = "{64, 77}";
type = Stem;
},
{
place = "{404, 77}";
type = Stem;
},
{
horizontal = 1;
place = "{0, 21}";
target = up;
type = BottomGhost;
}
);
layerId = "A3B50665-EA37-4AC6-885C-1233CA61B6BD";
paths = (
{
closed = 1;
nodes = (
"415 710 LINE",
"415 416 LINE",
"423 423 LINE",
"401 476 OFFCURVE",
"349 507 OFFCURVE",
"280 507 CURVE SMOOTH",
"141 507 OFFCURVE",
"45 392 OFFCURVE",
"45 225 CURVE SMOOTH",
"45 82 OFFCURVE",
"122 -8 OFFCURVE",
"241 -8 CURVE SMOOTH",
"336 -8 OFFCURVE",
"407 53 OFFCURVE",
"426 150 CURVE",
"416 154 LINE",
"416 0 LINE",
"492 0 LINE",
"492 710 LINE"
);
},
{
closed = 1;
nodes = (
"371 435 OFFCURVE",
"414 383 OFFCURVE",
"414 284 CURVE SMOOTH",
"414 158 OFFCURVE",
"345 64 OFFCURVE",
"255 64 CURVE SMOOTH",
"174 64 OFFCURVE",
"126 125 OFFCURVE",
"126 231 CURVE SMOOTH",
"126 354 OFFCURVE",
"190 435 OFFCURVE",
"289 435 CURVE SMOOTH"
);
}
);
width = 560;
},
{
background = {
paths = (
{
closed = 1;
nodes = (
"440 506 LINE",
"420 422 LINE",
"430 440 LINE",
"410 484 OFFCURVE",
"359 516 OFFCURVE",
"287 516 CURVE SMOOTH",
"121 516 OFFCURVE",
"31 378 OFFCURVE",
"31 239 CURVE SMOOTH",
"31 89 OFFCURVE",
"123 -10 OFFCURVE",
"262 -10 CURVE SMOOTH",
"350 -10 OFFCURVE",
"419 41 OFFCURVE",
"440 121 CURVE",
"418 155 LINE",
"418 -2 LINE",
"563 -2 LINE",
"563 506 LINE"
);
},
{
closed = 1;
nodes = (
"378 390 OFFCURVE",
"417 351 OFFCURVE",
"417 269 CURVE SMOOTH",
"417 178 OFFCURVE",
"363 118 OFFCURVE",
"292 118 CURVE SMOOTH",
"227 118 OFFCURVE",
"186 163 OFFCURVE",
"186 242 CURVE SMOOTH",
"186 323 OFFCURVE",
"232 390 OFFCURVE",
"312 390 CURVE SMOOTH"
);
}
);
};
hints = (
{
horizontal = 1;
place = "{-8, 129}";
type = Stem;
},
{
horizontal = 1;
place = "{386, 129}";
type = Stem;
},
{
horizontal = 1;
place = "{672, -20}";
target = down;
type = TopGhost;
},
{
place = "{46, 134}";
type = Stem;
},
{
place = "{366, 134}";
type = Stem;
},
{
horizontal = 1;
place = "{0, 21}";
target = up;
type = BottomGhost;
},
{
place = "{385, 115}";
type = Stem;
}
);
layerId = "014D4A40-7C7F-4023-B30E-1F55CE5EA091";
paths = (
{
closed = 1;
nodes = (
"417 710 LINE",
"417 422 LINE",
"430 440 LINE",
"410 484 OFFCURVE",
"359 516 OFFCURVE",
"287 516 CURVE SMOOTH",
"121 516 OFFCURVE",
"31 378 OFFCURVE",
"31 239 CURVE SMOOTH",
"31 89 OFFCURVE",
"123 -10 OFFCURVE",
"262 -10 CURVE SMOOTH",
"350 -10 OFFCURVE",
"419 44 OFFCURVE",
"440 124 CURVE",
"418 155 LINE",
"418 -2 LINE",
"563 -2 LINE",
"563 710 LINE"
);
},
{
closed = 1;
nodes = (
"378 390 OFFCURVE",
"417 351 OFFCURVE",
"417 269 CURVE SMOOTH",
"417 178 OFFCURVE",
"363 118 OFFCURVE",
"292 118 CURVE SMOOTH",
"227 118 OFFCURVE",
"186 163 OFFCURVE",
"186 242 CURVE SMOOTH",
"186 323 OFFCURVE",
"232 390 OFFCURVE",
"312 390 CURVE SMOOTH"
);
}
);
width = 619;
}
);
leftKerningGroup = o;
leftMetricsKey = o;
note = d;
rightMetricsKey = "=|h";
unicode = 0064;
},
{
color = 4;
glyphname = e;
lastChange = "2019-02-19 20:12:15 +0000";
layers = (
{
background = {
paths = (
{
closed = 1;
nodes = (
"359 -8 OFFCURVE",
"431 17 OFFCURVE",
"457 42 CURVE",
"429 104 LINE",
"388 78 OFFCURVE",
"344 63 OFFCURVE",
"290 63 CURVE SMOOTH",
"195 63 OFFCURVE",
"125 117 OFFCURVE",
"125 231 CURVE SMOOTH",
"125 246 LINE SMOOTH",
"125 374 OFFCURVE",
"202 440 OFFCURVE",
"281 440 CURVE SMOOTH",
"365 440 OFFCURVE",
"417 378 OFFCURVE",
"413 270 CURVE",
"423 286 LINE",
"110 286 LINE",
"110 220 LINE",
"485 220 LINE",
"499 393 OFFCURVE",
"422 507 OFFCURVE",
"284 507 CURVE SMOOTH",
"142 507 OFFCURVE",
"45 390 OFFCURVE",
"45 236 CURVE SMOOTH",
"45 78 OFFCURVE",
"146 -8 OFFCURVE",
"286 -8 CURVE SMOOTH"
);
}
);
};
hints = (
{
horizontal = 1;
place = "{-8, 75}";
type = Stem;
},
{
horizontal = 1;
place = "{433, 74}";
type = Stem;
},
{
place = "{64, 76}";
type = Stem;
},
{
place = "{389, 80}";
type = Stem;
}
);
layerId = "A3B50665-EA37-4AC6-885C-1233CA61B6BD";
paths = (
{
closed = 1;
nodes = (
"359 -8 OFFCURVE",
"431 17 OFFCURVE",
"457 42 CURVE",
"429 104 LINE",
"388 78 OFFCURVE",
"344 63 OFFCURVE",
"290 63 CURVE SMOOTH",
"195 63 OFFCURVE",
"125 117 OFFCURVE",
"125 231 CURVE SMOOTH",
"125 246 LINE SMOOTH",
"125 374 OFFCURVE",
"202 440 OFFCURVE",
"281 440 CURVE SMOOTH",
"365 440 OFFCURVE",
"417 378 OFFCURVE",
"413 270 CURVE",
"423 284 LINE",
"110 284 LINE",
"110 220 LINE",
"485 220 LINE",
"499 393 OFFCURVE",
"422 507 OFFCURVE",
"284 507 CURVE SMOOTH",
"142 507 OFFCURVE",
"45 390 OFFCURVE",
"45 236 CURVE SMOOTH",
"45 78 OFFCURVE",
"146 -8 OFFCURVE",
"286 -8 CURVE SMOOTH"
);
}
);
width = 530;
},
{
background = {
paths = (
{
closed = 1;
nodes = (
"379 -10 OFFCURVE",
"451 8 OFFCURVE",
"500 40 CURVE",
"450 152 LINE",
"408 131 OFFCURVE",
"361 119 OFFCURVE",
"324 119 CURVE SMOOTH",
"226 119 OFFCURVE",
"177 164 OFFCURVE",
"177 245 CURVE SMOOTH",
"177 258 LINE SMOOTH",
"177 348 OFFCURVE",
"234 404 OFFCURVE",
"305 404 CURVE SMOOTH",
"359 404 OFFCURVE",
"382 382 OFFCURVE",
"382 350 CURVE SMOOTH",
"382 323 OFFCURVE",
"363 298 OFFCURVE",
"298 289 CURVE SMOOTH",
"249 282 OFFCURVE",
"200 277 OFFCURVE",
"151 280 CURVE",
"151 172 LINE",
"349 203 LINE SMOOTH",
"469 222 OFFCURVE",
"513 284 OFFCURVE",
"513 360 CURVE SMOOTH",
"513 441 OFFCURVE",
"446 516 OFFCURVE",
"316 516 CURVE SMOOTH",
"144 516 OFFCURVE",
"31 397 OFFCURVE",
"31 239 CURVE SMOOTH",
"31 79 OFFCURVE",
"137 -10 OFFCURVE",
"308 -10 CURVE SMOOTH"
);
}
);
};
hints = (
{
horizontal = 1;
place = "{-8, 129}";
type = Stem;
},
{
horizontal = 1;
place = "{391, 123}";
type = Stem;
},
{
place = "{46, 133}";
type = Stem;
},
{
place = "{345, 141}";
type = Stem;
}
);
layerId = "014D4A40-7C7F-4023-B30E-1F55CE5EA091";
paths = (
{
closed = 1;
nodes = (
"379 -10 OFFCURVE",
"451 8 OFFCURVE",
"500 40 CURVE",
"450 152 LINE",
"408 131 OFFCURVE",
"361 119 OFFCURVE",
"324 119 CURVE SMOOTH",
"228 119 OFFCURVE",
"177 164 OFFCURVE",
"177 245 CURVE SMOOTH",
"177 258 LINE SMOOTH",
"177 348 OFFCURVE",
"217 404 OFFCURVE",
"293 404 CURVE SMOOTH",
"354 404 OFFCURVE",
"392 364 OFFCURVE",
"388 298 CURVE",
"428 310 LINE",
"141 310 LINE",
"141 207 LINE",
"522 207 LINE",
"542 402 OFFCURVE",
"447 516 OFFCURVE",
"296 516 CURVE SMOOTH",
"140 516 OFFCURVE",
"31 397 OFFCURVE",
"31 239 CURVE SMOOTH",
"31 79 OFFCURVE",
"139 -10 OFFCURVE",
"308 -10 CURVE SMOOTH"
);
}
);
width = 555;
}
);
leftKerningGroup = o;
leftMetricsKey = o;
note = e;
unicode = 0065;
},
{
color = 4;
glyphname = f;
lastChange = "2019-02-19 16:27:42 +0000";
layers = (
{
background = {
paths = (
{
closed = 1;
nodes = (
"1067 665 LINE",
"1034 701 OFFCURVE",
"983 720 OFFCURVE",
"921 720 CURVE SMOOTH",
"785 720 OFFCURVE",
"693 622 OFFCURVE",
"693 476 CURVE SMOOTH",
"693 0 LINE",
"770 0 LINE",
"770 476 LINE SMOOTH",
"770 585 OFFCURVE",
"825 649 OFFCURVE",
"918 649 CURVE SMOOTH",
"966 649 OFFCURVE",
"1003 634 OFFCURVE",
"1032 603 CURVE"
);
},
{
closed = 1;
nodes = (
"594 433 LINE",
"938 433 LINE",
"938 498 LINE",
"594 498 LINE"
);
},
{
closed = 1;
nodes = (
"459 698 LINE",
"424 719 OFFCURVE",
"375 730 OFFCURVE",
"317 730 CURVE SMOOTH",
"157 730 OFFCURVE",
"56 630 OFFCURVE",
"56 493 CURVE SMOOTH",
"56 0 LINE",
"202 0 LINE",
"202 504 LINE SMOOTH",
"202 568 OFFCURVE",
"241 610 OFFCURVE",
"317 610 CURVE SMOOTH",
"350 610 OFFCURVE",
"386 602 OFFCURVE",
"408 590 CURVE"
);
},
{
closed = 1;
nodes = (
"-39 387 LINE",
"340 387 LINE",
"340 508 LINE",
"-39 508 LINE"
);
}
);
};
layerId = "A3B50665-EA37-4AC6-885C-1233CA61B6BD";
paths = (
{
closed = 1;
nodes = (
"170 0 LINE",
"170 491 LINE SMOOTH",
"170 589 OFFCURVE",
"222 652 OFFCURVE",
"320 652 CURVE SMOOTH",
"354 652 OFFCURVE",
"387 645 OFFCURVE",
"413 634 CURVE",
"434 697 LINE",
"406 711 OFFCURVE",
"365 720 OFFCURVE",
"318 720 CURVE SMOOTH",
"179 720 OFFCURVE",
"94 621 OFFCURVE",
"94 499 CURVE SMOOTH",
"93 0 LINE"
);
},
{
closed = 1;
nodes = (
"338 432 LINE",
"338 498 LINE",
"-6 498 LINE",
"-6 432 LINE"
);
}
);
width = 328;
},
{
background = {
paths = (
{
closed = 1;
nodes = (
"1101 677 LINE",
"1056 712 OFFCURVE",
"1006 730 OFFCURVE",
"936 730 CURVE SMOOTH",
"778 730 OFFCURVE",
"680 630 OFFCURVE",
"680 483 CURVE SMOOTH",
"680 0 LINE",
"826 0 LINE",
"826 504 LINE SMOOTH",
"826 568 OFFCURVE",
"863 606 OFFCURVE",
"935 606 CURVE SMOOTH",
"972 606 OFFCURVE",
"1012 591 OFFCURVE",
"1036 565 CURVE"
);
},
{
closed = 1;
nodes = (
"585 387 LINE",
"964 387 LINE",
"964 508 LINE",
"585 508 LINE"
);
},
{
closed = 1;
nodes = (
"493 692 LINE",
"456 717 OFFCURVE",
"402 730 OFFCURVE",
"338 730 CURVE SMOOTH",
"180 730 OFFCURVE",
"80 630 OFFCURVE",
"80 493 CURVE SMOOTH",
"80 0 LINE",
"226 0 LINE",
"226 504 LINE SMOOTH",
"226 568 OFFCURVE",
"265 610 OFFCURVE",
"341 610 CURVE SMOOTH",
"378 610 OFFCURVE",
"418 600 OFFCURVE",
"442 584 CURVE"
);
},
{
closed = 1;
nodes = (
"-15 387 LINE",
"364 387 LINE",
"364 508 LINE",
"-15 508 LINE"
);
}
);
};
layerId = "014D4A40-7C7F-4023-B30E-1F55CE5EA091";
paths = (
{
closed = 1;
nodes = (
"226 0 LINE",
"226 504 LINE SMOOTH",
"226 568 OFFCURVE",
"265 610 OFFCURVE",
"351 610 CURVE SMOOTH",
"374 610 OFFCURVE",
"410 604 OFFCURVE",
"435 593 CURVE",
"480 703 LINE",
"448 719 OFFCURVE",
"399 730 OFFCURVE",
"341 730 CURVE SMOOTH",
"181 730 OFFCURVE",
"80 630 OFFCURVE",
"80 493 CURVE SMOOTH",
"80 0 LINE"
);
},
{
closed = 1;
nodes = (
"364 385 LINE",
"364 508 LINE",
"-15 508 LINE",
"-15 385 LINE"
);
}
);
width = 361;
}
);
unicode = 0066;
},
{
color = 4;
glyphname = g;
lastChange = "2019-02-19 20:12:15 +0000";
layers = (
{
background = {
paths = (
{
closed = 1;
nodes = (
"1121 416 LINE",
"1127 425 LINE",
"1105 477 OFFCURVE",
"1053 507 OFFCURVE",
"985 507 CURVE SMOOTH",
"855 507 OFFCURVE",
"745 403 OFFCURVE",
"745 230 CURVE SMOOTH",
"745 90 OFFCURVE",
"827 2 OFFCURVE",
"944 2 CURVE SMOOTH",
"1037 2 OFFCURVE",
"1112 59 OFFCURVE",
"1132 157 CURVE",
"1119 154 LINE",
"1119 44 LINE SMOOTH",
"1119 -85 OFFCURVE",
"1051 -129 OFFCURVE",
"960 -129 CURVE SMOOTH",
"884 -129 OFFCURVE",
"839 -117 OFFCURVE",
"797 -95 CURVE",
"762 -159 LINE",
"807 -185 OFFCURVE",
"869 -200 OFFCURVE",
"956 -200 CURVE SMOOTH",
"1089 -200 OFFCURVE",
"1196 -122 OFFCURVE",
"1196 44 CURVE SMOOTH",
"1196 498 LINE",
"1125 498 LINE"
);
},
{
closed = 1;
nodes = (
"873 74 OFFCURVE",
"826 134 OFFCURVE",
"826 236 CURVE SMOOTH",
"826 351 OFFCURVE",
"890 435 OFFCURVE",
"992 435 CURVE SMOOTH",
"1072 435 OFFCURVE",
"1118 388 OFFCURVE",
"1118 288 CURVE SMOOTH",
"1118 148 OFFCURVE",
"1041 74 OFFCURVE",
"954 74 CURVE SMOOTH"
);
},
{
closed = 1;
nodes = (
"391 422 LINE",
"401 443 LINE",
"382 485 OFFCURVE",
"330 516 OFFCURVE",
"260 516 CURVE SMOOTH",
"123 516 OFFCURVE",
"7 413 OFFCURVE",
"7 244 CURVE SMOOTH",
"7 106 OFFCURVE",
"91 9 OFFCURVE",
"234 9 CURVE SMOOTH",
"320 9 OFFCURVE",
"392 59 OFFCURVE",
"413 157 CURVE",
"388 155 LINE",
"388 89 LINE SMOOTH",
"388 -28 OFFCURVE",
"333 -67 OFFCURVE",
"212 -67 CURVE SMOOTH",
"168 -67 OFFCURVE",
"106 -54 OFFCURVE",
"60 -31 CURVE",
"25 -161 LINE",
"79 -189 OFFCURVE",
"148 -200 OFFCURVE",
"210 -200 CURVE SMOOTH",
"411 -200 OFFCURVE",
"534 -104 OFFCURVE",
"534 96 CURVE SMOOTH",
"534 506 LINE",
"411 506 LINE"
);
},
{
closed = 1;
nodes = (
"194 136 OFFCURVE",
"158 178 OFFCURVE",
"158 247 CURVE SMOOTH",
"158 333 OFFCURVE",
"209 390 OFFCURVE",
"282 390 CURVE SMOOTH",
"350 390 OFFCURVE",
"388 353 OFFCURVE",
"388 277 CURVE SMOOTH",
"388 193 OFFCURVE",
"339 136 OFFCURVE",
"259 136 CURVE SMOOTH"
);
}
);
};
hints = (
{
horizontal = 1;
place = "{-173, 75}";
type = Stem;
},
{
horizontal = 1;
place = "{21, 75}";
type = Stem;
},
{
horizontal = 1;
place = "{432, 75}";
type = Stem;
},
{
place = "{64, 77}";
type = Stem;
},
{
place = "{405, 77}";
type = Stem;
},
{
horizontal = 1;
place = "{498, -20}";
target = down;
type = TopGhost;
}
);
layerId = "A3B50665-EA37-4AC6-885C-1233CA61B6BD";
paths = (
{
closed = 1;
nodes = (
"407 -200 OFFCURVE",
"496 -107 OFFCURVE",
"496 74 CURVE SMOOTH",
"496 498 LINE",
"425 498 LINE",
"421 416 LINE",
"427 425 LINE",
"405 477 OFFCURVE",
"352 507 OFFCURVE",
"282 507 CURVE SMOOTH",
"142 507 OFFCURVE",
"45 394 OFFCURVE",
"45 231 CURVE SMOOTH",
"45 93 OFFCURVE",
"123 2 OFFCURVE",
"243 2 CURVE SMOOTH",
"339 2 OFFCURVE",
"411 63 OFFCURVE",
"430 158 CURVE",
"419 154 LINE",
"419 84 LINE SMOOTH",
"419 -69 OFFCURVE",
"365 -129 OFFCURVE",
"231 -129 CURVE SMOOTH",
"180 -129 OFFCURVE",
"127 -117 OFFCURVE",
"81 -96 CURVE",
"61 -166 LINE",
"109 -189 OFFCURVE",
"174 -200 OFFCURVE",
"229 -200 CURVE SMOOTH"
);
},
{
closed = 1;
nodes = (
"174 74 OFFCURVE",
"126 133 OFFCURVE",
"126 236 CURVE SMOOTH",
"126 356 OFFCURVE",
"191 435 OFFCURVE",
"291 435 CURVE SMOOTH",
"374 435 OFFCURVE",
"418 384 OFFCURVE",
"418 288 CURVE SMOOTH",
"418 166 OFFCURVE",
"349 74 OFFCURVE",
"257 74 CURVE SMOOTH"
);
}
);
width = 564;
},
{
background = {
paths = (
{
closed = 1;
nodes = (
"415 422 LINE",
"425 442 LINE",
"405 485 OFFCURVE",
"353 516 OFFCURVE",
"281 516 CURVE SMOOTH",
"142 516 OFFCURVE",
"24 412 OFFCURVE",
"24 242 CURVE SMOOTH",
"24 103 OFFCURVE",
"109 5 OFFCURVE",
"255 5 CURVE SMOOTH",
"342 5 OFFCURVE",
"416 55 OFFCURVE",
"437 154 CURVE",
"412 155 LINE",
"412 79 LINE SMOOTH",
"412 -28 OFFCURVE",
"358 -69 OFFCURVE",
"245 -69 CURVE SMOOTH",
"188 -69 OFFCURVE",
"126 -55 OFFCURVE",
"75 -34 CURVE",
"38 -161 LINE",
"94 -189 OFFCURVE",
"168 -200 OFFCURVE",
"252 -200 CURVE SMOOTH",
"437 -200 OFFCURVE",
"558 -104 OFFCURVE",
"558 86 CURVE SMOOTH",
"558 506 LINE",
"435 506 LINE"
);
},
{
closed = 1;
nodes = (
"215 133 OFFCURVE",
"179 175 OFFCURVE",
"179 245 CURVE SMOOTH",
"179 332 OFFCURVE",
"231 390 OFFCURVE",
"305 390 CURVE SMOOTH",
"373 390 OFFCURVE",
"412 353 OFFCURVE",
"412 276 CURVE SMOOTH",
"412 191 OFFCURVE",
"362 133 OFFCURVE",
"281 133 CURVE SMOOTH"
);
}
);
};
hints = (
{
horizontal = 1;
place = "{-166, 123}";
type = Stem;
},
{
horizontal = 1;
place = "{47, 125}";
type = Stem;
},
{
horizontal = 1;
place = "{498, -20}";
target = down;
type = TopGhost;
},
{
place = "{46, 138}";
type = Stem;
},
{
place = "{369, 134}";
type = Stem;
},
{
horizontal = 1;
place = "{386, 129}";
type = Stem;
},
{
place = "{388, 115}";
type = Stem;
}
);
layerId = "014D4A40-7C7F-4023-B30E-1F55CE5EA091";
paths = (
{
closed = 1;
nodes = (
"435 -200 OFFCURVE",
"558 -104 OFFCURVE",
"558 96 CURVE SMOOTH",
"558 506 LINE",
"435 506 LINE",
"415 422 LINE",
"425 443 LINE",
"406 485 OFFCURVE",
"354 516 OFFCURVE",
"284 516 CURVE SMOOTH",
"147 516 OFFCURVE",
"31 413 OFFCURVE",
"31 244 CURVE SMOOTH",
"31 106 OFFCURVE",
"115 9 OFFCURVE",
"258 9 CURVE SMOOTH",
"344 9 OFFCURVE",
"416 59 OFFCURVE",
"437 157 CURVE",
"412 155 LINE",
"412 89 LINE SMOOTH",
"412 -28 OFFCURVE",
"357 -67 OFFCURVE",
"236 -67 CURVE SMOOTH",
"192 -67 OFFCURVE",
"130 -54 OFFCURVE",
"84 -31 CURVE",
"49 -161 LINE",
"103 -189 OFFCURVE",
"172 -200 OFFCURVE",
"234 -200 CURVE SMOOTH"
);
},
{
closed = 1;
nodes = (
"218 136 OFFCURVE",
"182 178 OFFCURVE",
"182 247 CURVE SMOOTH",
"182 333 OFFCURVE",
"233 390 OFFCURVE",
"306 390 CURVE SMOOTH",
"374 390 OFFCURVE",
"412 353 OFFCURVE",
"412 277 CURVE SMOOTH",
"412 193 OFFCURVE",
"363 136 OFFCURVE",
"283 136 CURVE SMOOTH"
);
}
);
width = 614;
}
);
leftKerningGroup = o;
leftMetricsKey = o;
note = g;
rightMetricsKey = "=|n";
unicode = 0067;
},
{
color = 4;
glyphname = h;
lastChange = "2019-02-19 16:26:30 +0000";
layers = (
{
background = {
paths = (
{
closed = 1;
nodes = (
"146 0 LINE",
"146 138 LINE SMOOTH",
"146 321 OFFCURVE",
"218 434 OFFCURVE",
"321 434 CURVE SMOOTH",
"392 434 OFFCURVE",
"426 386 OFFCURVE",
"426 284 CURVE SMOOTH",
"426 0 LINE",
"503 0 LINE",
"503 287 LINE SMOOTH",
"503 431 OFFCURVE",
"442 507 OFFCURVE",
"329 507 CURVE SMOOTH",
"239 507 OFFCURVE",
"152 438 OFFCURVE",
"132 335 CURVE",
"146 336 LINE",
"146 710 LINE",
"68 710 LINE",
"68 0 LINE"
);
}
);
};
hints = (
{
horizontal = 1;
place = "{0, 21}";
target = up;
type = BottomGhost;
},
{
horizontal = 1;
place = "{432, 75}";
type = Stem;
},
{
horizontal = 1;
place = "{664, -20}";
target = down;
type = TopGhost;
},
{
place = "{72, 77}";
type = Stem;
},
{
place = "{401, 77}";
type = Stem;
}
);
layerId = "A3B50665-EA37-4AC6-885C-1233CA61B6BD";
paths = (
{
closed = 1;
nodes = (
"146 0 LINE",
"146 138 LINE SMOOTH",
"146 321 OFFCURVE",
"218 434 OFFCURVE",
"319 434 CURVE SMOOTH",
"389 434 OFFCURVE",
"422 386 OFFCURVE",
"422 284 CURVE SMOOTH",
"422 0 LINE",
"499 0 LINE",
"499 287 LINE SMOOTH",
"499 431 OFFCURVE",
"439 507 OFFCURVE",
"328 507 CURVE SMOOTH",
"239 507 OFFCURVE",
"152 438 OFFCURVE",
"132 335 CURVE",
"146 336 LINE",
"146 710 LINE",
"68 710 LINE",
"68 0 LINE"
);
}
);
width = 565;
},
{
background = {
paths = (
{
closed = 1;
nodes = (
"202 0 LINE",
"202 130 LINE SMOOTH",
"202 316 OFFCURVE",
"273 379 OFFCURVE",
"339 379 CURVE SMOOTH",
"393 379 OFFCURVE",
"418 353 OFFCURVE",
"418 257 CURVE SMOOTH",
"418 0 LINE",
"563 0 LINE",
"563 268 LINE SMOOTH",
"563 444 OFFCURVE",
"496 516 OFFCURVE",
"377 516 CURVE SMOOTH",
"289 516 OFFCURVE",
"198 456 OFFCURVE",
"176 341 CURVE",
"202 351 LINE",
"202 710 LINE",
"56 710 LINE",
"56 0 LINE"
);
}
);
};
hints = (
{
horizontal = 1;
place = "{0, 21}";
target = up;
type = BottomGhost;
},
{
horizontal = 1;
place = "{386, 129}";
type = Stem;
},
{
horizontal = 1;
place = "{672, -20}";
target = down;
type = TopGhost;
},
{
place = "{54, 134}";
type = Stem;
},
{
place = "{364, 134}";
type = Stem;
}
);
layerId = "014D4A40-7C7F-4023-B30E-1F55CE5EA091";
paths = (
{
closed = 1;
nodes = (
"202 0 LINE",
"202 130 LINE SMOOTH",
"202 316 OFFCURVE",
"272 379 OFFCURVE",
"338 379 CURVE SMOOTH",
"391 379 OFFCURVE",
"416 353 OFFCURVE",
"416 257 CURVE SMOOTH",
"416 0 LINE",
"559 0 LINE",
"559 268 LINE SMOOTH",
"559 444 OFFCURVE",
"495 516 OFFCURVE",
"377 516 CURVE SMOOTH",
"290 516 OFFCURVE",
"198 456 OFFCURVE",
"176 341 CURVE",
"202 351 LINE",
"202 712 LINE",
"56 710 LINE",
"56 0 LINE"
);
}
);
width = 613;
}
);
note = h;
rightMetricsKey = n;
unicode = 0068;
},
{
color = 4;
glyphname = i;
lastChange = "2019-02-19 16:28:08 +0000";
layers = (
{
hints = (
{
horizontal = 1;
place = "{0, 21}";
target = up;
type = BottomGhost;
},
{
horizontal = 1;
place = "{499, -20}";
target = down;
type = TopGhost;
},
{
horizontal = 1;
place = "{577, 87}";
type = Stem;
},
{
place = "{72, 77}";
type = Stem;
}
);
layerId = "A3B50665-EA37-4AC6-885C-1233CA61B6BD";
paths = (
{
closed = 1;
nodes = (
"68 498 LINE",
"68 0 LINE",
"145 0 LINE",
"145 498 LINE"
);
},
{
closed = 1;
nodes = (
"142 604 OFFCURVE",
"163 629 OFFCURVE",
"163 660 CURVE SMOOTH",
"163 690 OFFCURVE",
"142 715 OFFCURVE",
"107 715 CURVE SMOOTH",
"72 715 OFFCURVE",
"50 690 OFFCURVE",
"50 660 CURVE SMOOTH",
"50 629 OFFCURVE",
"72 604 OFFCURVE",
"107 604 CURVE SMOOTH"
);
}
);
width = 213;
},
{
background = {
paths = (
{
closed = 1;
nodes = (
"192 568 OFFCURVE",
"230 612 OFFCURVE",
"230 667 CURVE SMOOTH",
"230 722 OFFCURVE",
"192 766 OFFCURVE",
"129 766 CURVE SMOOTH",
"66 766 OFFCURVE",
"28 722 OFFCURVE",
"28 667 CURVE SMOOTH",
"28 612 OFFCURVE",
"66 568 OFFCURVE",
"129 568 CURVE SMOOTH"
);
}
);
};
hints = (
{
horizontal = 1;
place = "{0, 21}";
target = up;
type = BottomGhost;
},
{
horizontal = 1;
place = "{514, -20}";
target = down;
type = TopGhost;
},
{
horizontal = 1;
place = "{556, 116}";
type = Stem;
},
{
place = "{54, 134}";
type = Stem;
}
);
layerId = "014D4A40-7C7F-4023-B30E-1F55CE5EA091";
paths = (
{
closed = 1;
nodes = (
"56 508 LINE",
"56 0 LINE",
"202 0 LINE",
"202 508 LINE"
);
},
{
closed = 1;
nodes = (
"188 558 OFFCURVE",
"225 599 OFFCURVE",
"225 650 CURVE SMOOTH",
"225 701 OFFCURVE",
"188 742 OFFCURVE",
"129 742 CURVE SMOOTH",
"70 742 OFFCURVE",
"33 701 OFFCURVE",
"33 650 CURVE SMOOTH",
"33 599 OFFCURVE",
"70 558 OFFCURVE",
"129 558 CURVE SMOOTH"
);
}
);
width = 258;
}
);
note = i;
unicode = 0069;
},
{
color = 4;
glyphname = j;
lastChange = "2019-02-19 16:28:27 +0000";
layers = (
{
background = {
paths = (
{
closed = 1;
nodes = (
"774 -200 OFFCURVE",
"861 -110 OFFCURVE",
"861 44 CURVE SMOOTH",
"861 498 LINE",
"784 498 LINE",
"784 44 LINE SMOOTH",
"784 -72 OFFCURVE",
"733 -129 OFFCURVE",
"647 -129 CURVE SMOOTH",
"603 -129 OFFCURVE",
"569 -119 OFFCURVE",
"542 -98 CURVE",
"510 -160 LINE",
"538 -186 OFFCURVE",
"587 -200 OFFCURVE",
"645 -200 CURVE SMOOTH"
);
},
{
closed = 1;
nodes = (
"858 604 OFFCURVE",
"879 629 OFFCURVE",
"879 660 CURVE SMOOTH",
"879 690 OFFCURVE",
"858 715 OFFCURVE",
"823 715 CURVE SMOOTH",
"788 715 OFFCURVE",
"766 690 OFFCURVE",
"766 660 CURVE SMOOTH",
"766 629 OFFCURVE",
"788 604 OFFCURVE",
"823 604 CURVE SMOOTH"
);
},
{
closed = 1;
nodes = (
"102 -200 OFFCURVE",
"195 -119 OFFCURVE",
"195 27 CURVE SMOOTH",
"195 508 LINE",
"49 508 LINE",
"49 26 LINE SMOOTH",
"49 -44 OFFCURVE",
"21 -76 OFFCURVE",
"-42 -76 CURVE SMOOTH",
"-74 -76 OFFCURVE",
"-108 -69 OFFCURVE",
"-129 -63 CURVE",
"-150 -183 LINE",
"-121 -194 OFFCURVE",
"-80 -200 OFFCURVE",
"-37 -200 CURVE SMOOTH"
);
},
{
closed = 1;
nodes = (
"178 558 OFFCURVE",
"218 596 OFFCURVE",
"218 650 CURVE SMOOTH",
"218 704 OFFCURVE",
"178 742 OFFCURVE",
"122 742 CURVE SMOOTH",
"66 742 OFFCURVE",
"26 704 OFFCURVE",
"26 650 CURVE SMOOTH",
"26 596 OFFCURVE",
"66 558 OFFCURVE",
"122 558 CURVE SMOOTH"
);
}
);
};
layerId = "A3B50665-EA37-4AC6-885C-1233CA61B6BD";
paths = (
{
closed = 1;
nodes = (
"87 -200 OFFCURVE",
"161 -124 OFFCURVE",
"161 6 CURVE SMOOTH",
"161 498 LINE",
"84 498 LINE",
"84 10 LINE SMOOTH",
"84 -77 OFFCURVE",
"51 -130 OFFCURVE",
"-31 -130 CURVE SMOOTH",
"-58 -130 OFFCURVE",
"-85 -125 OFFCURVE",
"-110 -114 CURVE",
"-128 -180 LINE",
"-103 -194 OFFCURVE",
"-65 -200 OFFCURVE",
"-29 -200 CURVE SMOOTH"
);
},
{
closed = 1;
nodes = (
"156 604 OFFCURVE",
"179 627 OFFCURVE",
"179 660 CURVE SMOOTH",
"179 692 OFFCURVE",
"156 715 OFFCURVE",
"123 715 CURVE SMOOTH",
"90 715 OFFCURVE",
"66 692 OFFCURVE",
"66 660 CURVE SMOOTH",
"66 627 OFFCURVE",
"90 604 OFFCURVE",
"123 604 CURVE SMOOTH"
);
}
);
width = 229;
},
{
background = {
paths = (
{
closed = 1;
nodes = (
"-180 -162 LINE",
"-147 -187 OFFCURVE",
"-90 -200 OFFCURVE",
"-23 -200 CURVE SMOOTH",
"118 -200 OFFCURVE",
"211 -115 OFFCURVE",
"211 33 CURVE SMOOTH",
"211 520 LINE",
"65 520 LINE",
"65 26 LINE SMOOTH",
"65 -45 OFFCURVE",
"32 -76 OFFCURVE",
"-25 -76 CURVE SMOOTH",
"-63 -76 OFFCURVE",
"-100 -68 OFFCURVE",
"-125 -53 CURVE"
);
},
{
closed = 1;
nodes = (
"197 558 OFFCURVE",
"234 599 OFFCURVE",
"234 650 CURVE SMOOTH",
"234 701 OFFCURVE",
"197 742 OFFCURVE",
"138 742 CURVE SMOOTH",
"79 742 OFFCURVE",
"42 701 OFFCURVE",
"42 650 CURVE SMOOTH",
"42 599 OFFCURVE",
"79 558 OFFCURVE",
"138 558 CURVE SMOOTH"
);
}
);
};
layerId = "014D4A40-7C7F-4023-B30E-1F55CE5EA091";
paths = (
{
closed = 1;
nodes = (
"118 -200 OFFCURVE",
"211 -119 OFFCURVE",
"211 27 CURVE SMOOTH",
"211 508 LINE",
"65 508 LINE",
"65 26 LINE SMOOTH",
"65 -44 OFFCURVE",
"37 -76 OFFCURVE",
"-26 -76 CURVE SMOOTH",
"-58 -76 OFFCURVE",
"-92 -69 OFFCURVE",
"-113 -63 CURVE",
"-134 -183 LINE",
"-105 -194 OFFCURVE",
"-64 -200 OFFCURVE",
"-21 -200 CURVE SMOOTH"
);
},
{
closed = 1;
nodes = (
"194 558 OFFCURVE",
"234 596 OFFCURVE",
"234 650 CURVE SMOOTH",
"234 704 OFFCURVE",
"194 742 OFFCURVE",
"138 742 CURVE SMOOTH",
"82 742 OFFCURVE",
"42 704 OFFCURVE",
"42 650 CURVE SMOOTH",
"42 596 OFFCURVE",
"82 558 OFFCURVE",
"138 558 CURVE SMOOTH"
);
}
);
width = 267;
}
);
unicode = 006A;
},
{
color = 4;
glyphname = k;
lastChange = "2019-02-19 16:28:38 +0000";
layers = (
{
background = {
paths = (
{
closed = 1;
nodes = (
"462 -10 OFFCURVE",
"515 4 OFFCURVE",
"540 21 CURVE",
"507 133 LINE",
"484 122 OFFCURVE",
"460 116 OFFCURVE",
"434 116 CURVE SMOOTH",
"403 116 OFFCURVE",
"379 127 OFFCURVE",
"358 153 CURVE SMOOTH",
"292 235 LINE",
"255 178 LINE",
"402 184 OFFCURVE",
"499 258 OFFCURVE",
"499 360 CURVE SMOOTH",
"499 453 OFFCURVE",
"429 516 OFFCURVE",
"336 516 CURVE SMOOTH",
"234 516 OFFCURVE",
"144 456 OFFCURVE",
"124 341 CURVE",
"146 333 LINE",
"146 720 LINE",
"0 719 LINE",
"0 0 LINE",
"146 0 LINE",
"146 110 LINE SMOOTH",
"146 303 OFFCURVE",
"204 400 OFFCURVE",
"301 400 CURVE SMOOTH",
"339 400 OFFCURVE",
"362 383 OFFCURVE",
"362 347 CURVE SMOOTH",
"362 295 OFFCURVE",
"305 260 OFFCURVE",
"218 260 CURVE SMOOTH",
"188 260 OFFCURVE",
"163 262 OFFCURVE",
"139 269 CURVE",
"120 232 LINE",
"244 69 LINE SMOOTH",
"286 14 OFFCURVE",
"335 -10 OFFCURVE",
"415 -10 CURVE SMOOTH"
);
}
);
};
hints = (
{
horizontal = 1;
place = "{0, 21}";
target = up;
type = BottomGhost;
},
{
horizontal = 1;
place = "{214, 70}";
type = Stem;
},
{
horizontal = 1;
place = "{498, -20}";
target = down;
type = TopGhost;
},
{
horizontal = 1;
place = "{664, -20}";
target = down;
type = TopGhost;
},
{
place = "{72, 77}";
type = Stem;
},
{
place = "{352, 77}";
type = Stem;
}
);
layerId = "A3B50665-EA37-4AC6-885C-1233CA61B6BD";
paths = (
{
closed = 1;
nodes = (
"457 -6 OFFCURVE",
"489 5 OFFCURVE",
"517 27 CURVE",
"495 83 LINE",
"475 70 OFFCURVE",
"454 61 OFFCURVE",
"429 61 CURVE SMOOTH",
"393 61 OFFCURVE",
"366 76 OFFCURVE",
"334 112 CURVE SMOOTH",
"235 226 LINE",
"229 193 LINE",
"389 196 OFFCURVE",
"482 264 OFFCURVE",
"482 364 CURVE SMOOTH",
"482 448 OFFCURVE",
"418 506 OFFCURVE",
"328 506 CURVE SMOOTH",
"234 506 OFFCURVE",
"154 440 OFFCURVE",
"135 347 CURVE",
"146 326 LINE",
"146 710 LINE",
"68 710 LINE",
"68 0 LINE",
"146 0 LINE",
"146 185 LINE SMOOTH",
"146 349 OFFCURVE",
"221 438 OFFCURVE",
"316 438 CURVE SMOOTH",
"373 438 OFFCURVE",
"407 409 OFFCURVE",
"407 361 CURVE SMOOTH",
"407 298 OFFCURVE",
"346 250 OFFCURVE",
"214 250 CURVE SMOOTH",
"187 250 OFFCURVE",
"162 253 OFFCURVE",
"140 258 CURVE",
"140 229 LINE",
"280 63 LINE SMOOTH",
"320 15 OFFCURVE",
"363 -6 OFFCURVE",
"419 -6 CURVE SMOOTH"
);
}
);
width = 523;
},
{
background = {
paths = (
{
closed = 1;
nodes = (
"203 0 LINE",
"203 130 LINE SMOOTH",
"203 316 OFFCURVE",
"274 379 OFFCURVE",
"340 379 CURVE SMOOTH",
"394 379 OFFCURVE",
"419 353 OFFCURVE",
"419 257 CURVE SMOOTH",
"419 0 LINE",
"565 0 LINE",
"565 268 LINE SMOOTH",
"565 444 OFFCURVE",
"497 516 OFFCURVE",
"378 516 CURVE SMOOTH",
"290 516 OFFCURVE",
"199 456 OFFCURVE",
"177 341 CURVE",
"201 349 LINE",
"201 508 LINE",
"56 508 LINE",
"56 0 LINE"
);
}
);
};
hints = (
{
horizontal = 1;
place = "{0, 21}";
target = up;
type = BottomGhost;
},
{
horizontal = 1;
place = "{188, 123}";
type = Stem;
},
{
horizontal = 1;
place = "{498, -20}";
target = down;
type = TopGhost;
},
{
horizontal = 1;
place = "{672, -20}";
target = down;
type = TopGhost;
},
{
place = "{54, 134}";
type = Stem;
},
{
place = "{318, 134}";
type = Stem;
}
);
layerId = "014D4A40-7C7F-4023-B30E-1F55CE5EA091";
paths = (
{
closed = 1;
nodes = (
"518 -10 OFFCURVE",
"571 4 OFFCURVE",
"596 21 CURVE",
"563 133 LINE",
"540 122 OFFCURVE",
"516 116 OFFCURVE",
"490 116 CURVE SMOOTH",
"459 116 OFFCURVE",
"435 127 OFFCURVE",
"414 153 CURVE SMOOTH",
"348 235 LINE",
"311 178 LINE",
"458 184 OFFCURVE",
"555 258 OFFCURVE",
"555 360 CURVE SMOOTH",
"555 453 OFFCURVE",
"485 516 OFFCURVE",
"392 516 CURVE SMOOTH",
"290 516 OFFCURVE",
"200 456 OFFCURVE",
"180 341 CURVE",
"202 333 LINE",
"202 720 LINE",
"56 719 LINE",
"56 0 LINE",
"202 0 LINE",
"202 110 LINE SMOOTH",
"202 303 OFFCURVE",
"260 400 OFFCURVE",
"357 400 CURVE SMOOTH",
"395 400 OFFCURVE",
"418 383 OFFCURVE",
"418 347 CURVE SMOOTH",
"418 295 OFFCURVE",
"361 260 OFFCURVE",
"274 260 CURVE SMOOTH",
"244 260 OFFCURVE",
"219 262 OFFCURVE",
"195 269 CURVE",
"176 232 LINE",
"300 69 LINE SMOOTH",
"341 14 OFFCURVE",
"391 -10 OFFCURVE",
"471 -10 CURVE SMOOTH"
);
}
);
width = 591;
}
);
leftMetricsKey = h;
note = k;
unicode = 006B;
},
{
color = 4;
glyphname = l;
lastChange = "2019-02-19 16:28:53 +0000";
layers = (
{
background = {
paths = (
{
closed = 1;
nodes = (
"778 -8 OFFCURVE",
"819 4 OFFCURVE",
"846 25 CURVE",
"815 82 LINE",
"796 72 OFFCURVE",
"771 62 OFFCURVE",
"741 62 CURVE SMOOTH",
"680 62 OFFCURVE",
"646 103 OFFCURVE",
"646 178 CURVE SMOOTH",
"646 710 LINE",
"568 710 LINE",
"568 171 LINE SMOOTH",
"568 57 OFFCURVE",
"628 -8 OFFCURVE",
"731 -8 CURVE SMOOTH"
);
},
{
closed = 1;
nodes = (
"22 435 OFFCURVE",
"68 387 OFFCURVE",
"68 284 CURVE SMOOTH",
"68 140 OFFCURVE",
"-15 64 OFFCURVE",
"-94 64 CURVE SMOOTH",
"-174 64 OFFCURVE",
"-220 126 OFFCURVE",
"-220 231 CURVE SMOOTH",
"-220 349 OFFCURVE",
"-160 435 OFFCURVE",
"-57 435 CURVE SMOOTH"
);
},
{
closed = 1;
nodes = (
"146 498 LINE",
"75 498 LINE",
"71 416 LINE",
"77 423 LINE",
"55 476 OFFCURVE",
"4 507 OFFCURVE",
"-63 507 CURVE SMOOTH",
"-192 507 OFFCURVE",
"-301 401 OFFCURVE",
"-301 225 CURVE SMOOTH",
"-301 82 OFFCURVE",
"-224 -8 OFFCURVE",
"-108 -8 CURVE SMOOTH",
"-16 -8 OFFCURVE",
"60 50 OFFCURVE",
"80 150 CURVE",
"68 210 LINE",
"68 130 LINE SMOOTH",
"68 42 OFFCURVE",
"114 -8 OFFCURVE",
"193 -8 CURVE SMOOTH",
"229 -8 OFFCURVE",
"261 2 OFFCURVE",
"281 22 CURVE",
"249 79 LINE",
"238 72 OFFCURVE",
"223 62 OFFCURVE",
"202 62 CURVE SMOOTH",
"167 62 OFFCURVE",
"146 87 OFFCURVE",
"146 133 CURVE SMOOTH"
);
}
);
};
hints = (
{
horizontal = 1;
place = "{0, 21}";
target = up;
type = BottomGhost;
},
{
horizontal = 1;
place = "{664, -20}";
target = down;
type = TopGhost;
},
{
place = "{72, 77}";
type = Stem;
}
);
layerId = "A3B50665-EA37-4AC6-885C-1233CA61B6BD";
paths = (
{
closed = 1;
nodes = (
"229 -8 OFFCURVE",
"261 2 OFFCURVE",
"281 22 CURVE",
"249 79 LINE",
"238 72 OFFCURVE",
"223 62 OFFCURVE",
"202 62 CURVE SMOOTH",
"167 62 OFFCURVE",
"146 87 OFFCURVE",
"146 133 CURVE SMOOTH",
"146 710 LINE",
"68 710 LINE",
"68 130 LINE SMOOTH",
"68 42 OFFCURVE",
"114 -8 OFFCURVE",
"193 -8 CURVE SMOOTH"
);
}
);
width = 249;
},
{
background = {
paths = (
{
closed = 1;
nodes = (
"885 -10 OFFCURVE",
"935 2 OFFCURVE",
"959 17 CURVE",
"925 128 LINE",
"910 122 OFFCURVE",
"889 117 OFFCURVE",
"866 117 CURVE SMOOTH",
"821 117 OFFCURVE",
"802 146 OFFCURVE",
"802 184 CURVE SMOOTH",
"802 710 LINE",
"656 709 LINE",
"656 173 LINE SMOOTH",
"656 60 OFFCURVE",
"720 -10 OFFCURVE",
"834 -10 CURVE SMOOTH"
);
},
{
closed = 1;
nodes = (
"17 390 OFFCURVE",
"56 351 OFFCURVE",
"56 269 CURVE SMOOTH",
"56 178 OFFCURVE",
"2 118 OFFCURVE",
"-69 118 CURVE SMOOTH",
"-134 118 OFFCURVE",
"-175 163 OFFCURVE",
"-175 242 CURVE SMOOTH",
"-175 323 OFFCURVE",
"-129 390 OFFCURVE",
"-49 390 CURVE SMOOTH"
);
},
{
closed = 1;
nodes = (
"202 506 LINE",
"79 506 LINE",
"59 422 LINE",
"69 440 LINE",
"49 484 OFFCURVE",
"-2 516 OFFCURVE",
"-74 516 CURVE SMOOTH",
"-240 516 OFFCURVE",
"-330 378 OFFCURVE",
"-330 239 CURVE SMOOTH",
"-330 89 OFFCURVE",
"-238 -10 OFFCURVE",
"-99 -10 CURVE SMOOTH",
"-11 -10 OFFCURVE",
"58 41 OFFCURVE",
"79 121 CURVE",
"56 209 LINE",
"56 139 LINE SMOOTH",
"56 51 OFFCURVE",
"112 -10 OFFCURVE",
"211 -10 CURVE SMOOTH",
"255 -10 OFFCURVE",
"298 2 OFFCURVE",
"319 18 CURVE",
"285 129 LINE",
"275 122 OFFCURVE",
"261 117 OFFCURVE",
"245 117 CURVE SMOOTH",
"215 117 OFFCURVE",
"202 136 OFFCURVE",
"202 162 CURVE SMOOTH"
);
}
);
};
hints = (
{
horizontal = 1;
place = "{0, 21}";
target = up;
type = BottomGhost;
},
{
horizontal = 1;
place = "{672, -20}";
target = down;
type = TopGhost;
},
{
place = "{54, 134}";
type = Stem;
}
);
layerId = "014D4A40-7C7F-4023-B30E-1F55CE5EA091";
paths = (
{
closed = 1;
nodes = (
"255 -10 OFFCURVE",
"298 2 OFFCURVE",
"319 18 CURVE",
"285 129 LINE",
"275 122 OFFCURVE",
"261 117 OFFCURVE",
"245 117 CURVE SMOOTH",
"215 117 OFFCURVE",
"202 137 OFFCURVE",
"202 162 CURVE SMOOTH",
"202 710 LINE",
"56 709 LINE",
"56 139 LINE SMOOTH",
"56 51 OFFCURVE",
"112 -10 OFFCURVE",
"211 -10 CURVE SMOOTH"
);
}
);
width = 290;
}
);
note = l;
unicode = 006C;
},
{
color = 4;
glyphname = n;
lastChange = "2019-02-19 19:10:49 +0000";
layers = (
{
background = {
paths = (
{
closed = 1;
nodes = (
"146 0 LINE",
"146 138 LINE SMOOTH",
"146 321 OFFCURVE",
"218 434 OFFCURVE",
"321 434 CURVE SMOOTH",
"392 434 OFFCURVE",
"426 386 OFFCURVE",
"426 284 CURVE SMOOTH",
"426 0 LINE",
"503 0 LINE",
"503 287 LINE SMOOTH",
"503 431 OFFCURVE",
"442 507 OFFCURVE",
"329 507 CURVE SMOOTH",
"239 507 OFFCURVE",
"152 438 OFFCURVE",
"132 335 CURVE",
"145 343 LINE",
"145 498 LINE",
"68 498 LINE",
"68 0 LINE"
);
}
);
};
hints = (
{
horizontal = 1;
place = "{0, 21}";
target = up;
type = BottomGhost;
},
{
horizontal = 1;
place = "{432, 75}";
type = Stem;
},
{
place = "{72, 77}";
type = Stem;
},
{
place = "{401, 77}";
type = Stem;
}
);
layerId = "A3B50665-EA37-4AC6-885C-1233CA61B6BD";
paths = (
{
closed = 1;
nodes = (
"146 0 LINE",
"146 138 LINE SMOOTH",
"146 321 OFFCURVE",
"218 434 OFFCURVE",
"319 434 CURVE SMOOTH",
"389 434 OFFCURVE",
"422 386 OFFCURVE",
"422 284 CURVE SMOOTH",
"422 0 LINE",
"499 0 LINE",
"499 287 LINE SMOOTH",
"499 431 OFFCURVE",
"439 507 OFFCURVE",
"328 507 CURVE SMOOTH",
"239 507 OFFCURVE",
"152 438 OFFCURVE",
"132 335 CURVE",
"145 343 LINE",
"145 498 LINE",
"68 498 LINE",
"68 0 LINE"
);
}
);
width = 565;
},
{
background = {
paths = (
{
closed = 1;
nodes = (
"202 0 LINE",
"202 130 LINE SMOOTH",
"202 316 OFFCURVE",
"273 379 OFFCURVE",
"339 379 CURVE SMOOTH",
"393 379 OFFCURVE",
"418 353 OFFCURVE",
"418 257 CURVE SMOOTH",
"418 0 LINE",
"563 0 LINE",
"563 268 LINE SMOOTH",
"563 444 OFFCURVE",
"496 516 OFFCURVE",
"377 516 CURVE SMOOTH",
"289 516 OFFCURVE",
"198 456 OFFCURVE",
"176 341 CURVE",
"200 349 LINE",
"200 508 LINE",
"56 508 LINE",
"56 0 LINE"
);
}
);
};
hints = (
{
horizontal = 1;
place = "{0, 21}";
target = up;
type = BottomGhost;
},
{
horizontal = 1;
place = "{386, 129}";
type = Stem;
},
{
place = "{54, 134}";
type = Stem;
},
{
place = "{364, 134}";
type = Stem;
}
);
layerId = "014D4A40-7C7F-4023-B30E-1F55CE5EA091";
paths = (
{
closed = 1;
nodes = (
"202 0 LINE",
"202 130 LINE SMOOTH",
"202 316 OFFCURVE",
"272 379 OFFCURVE",
"338 379 CURVE SMOOTH",
"391 379 OFFCURVE",
"416 353 OFFCURVE",
"416 257 CURVE SMOOTH",
"416 0 LINE",
"559 0 LINE",
"559 268 LINE SMOOTH",
"559 444 OFFCURVE",
"495 516 OFFCURVE",
"377 516 CURVE SMOOTH",
"290 516 OFFCURVE",
"198 456 OFFCURVE",
"176 341 CURVE",
"200 349 LINE",
"200 508 LINE",
"56 508 LINE",
"56 0 LINE"
);
}
);
width = 613;
}
);
note = n;
unicode = 006E;
},
{
color = 4;
glyphname = o;
lastChange = "2019-02-19 20:12:08 +0000";
layers = (
{
background = {
paths = (
{
closed = 1;
nodes = (
"142 507 OFFCURVE",
"45 398 OFFCURVE",
"45 243 CURVE SMOOTH",
"45 89 OFFCURVE",
"131 -8 OFFCURVE",
"270 -8 CURVE SMOOTH",
"410 -8 OFFCURVE",
"507 101 OFFCURVE",
"507 257 CURVE SMOOTH",
"507 410 OFFCURVE",
"420 507 OFFCURVE",
"282 507 CURVE SMOOTH"
);
},
{
closed = 1;
nodes = (
"179 65 OFFCURVE",
"126 127 OFFCURVE",
"126 238 CURVE SMOOTH",
"126 355 OFFCURVE",
"188 434 OFFCURVE",
"280 434 CURVE SMOOTH",
"373 434 OFFCURVE",
"426 372 OFFCURVE",
"426 262 CURVE SMOOTH",
"426 144 OFFCURVE",
"365 65 OFFCURVE",
"273 65 CURVE SMOOTH"
);
}
);
};
hints = (
{
horizontal = 1;
place = "{-8, 75}";
type = Stem;
},
{
horizontal = 1;
place = "{432, 75}";
type = Stem;
},
{
place = "{64, 77}";
type = Stem;
},
{
place = "{405, 77}";
type = Stem;
}
);
layerId = "A3B50665-EA37-4AC6-885C-1233CA61B6BD";
paths = (
{
closed = 1;
nodes = (
"142 507 OFFCURVE",
"45 398 OFFCURVE",
"45 243 CURVE SMOOTH",
"45 89 OFFCURVE",
"131 -8 OFFCURVE",
"270 -8 CURVE SMOOTH",
"410 -8 OFFCURVE",
"506 101 OFFCURVE",
"506 257 CURVE SMOOTH",
"506 410 OFFCURVE",
"420 507 OFFCURVE",
"282 507 CURVE SMOOTH"
);
},
{
closed = 1;
nodes = (
"178 63 OFFCURVE",
"124 126 OFFCURVE",
"124 238 CURVE SMOOTH",
"124 356 OFFCURVE",
"187 436 OFFCURVE",
"280 436 CURVE SMOOTH",
"374 436 OFFCURVE",
"428 373 OFFCURVE",
"428 262 CURVE SMOOTH",
"428 143 OFFCURVE",
"366 63 OFFCURVE",
"273 63 CURVE SMOOTH"
);
}
);
width = 551;
},
{
background = {
paths = (
{
closed = 1;
nodes = (
"142 516 OFFCURVE",
"30 404 OFFCURVE",
"30 241 CURVE SMOOTH",
"30 87 OFFCURVE",
"125 -10 OFFCURVE",
"282 -10 CURVE SMOOTH",
"441 -10 OFFCURVE",
"554 101 OFFCURVE",
"554 263 CURVE SMOOTH",
"554 419 OFFCURVE",
"459 516 OFFCURVE",
"302 516 CURVE SMOOTH"
);
},
{
closed = 1;
nodes = (
"221 117 OFFCURVE",
"183 163 OFFCURVE",
"183 242 CURVE SMOOTH",
"183 331 OFFCURVE",
"227 389 OFFCURVE",
"298 389 CURVE SMOOTH",
"364 389 OFFCURVE",
"401 344 OFFCURVE",
"401 264 CURVE SMOOTH",
"401 174 OFFCURVE",
"359 117 OFFCURVE",
"288 117 CURVE SMOOTH"
);
}
);
};
hints = (
{
horizontal = 1;
place = "{-8, 129}";
type = Stem;
},
{
horizontal = 1;
place = "{386, 129}";
type = Stem;
},
{
place = "{46, 134}";
type = Stem;
},
{
place = "{366, 134}";
type = Stem;
}
);
layerId = "014D4A40-7C7F-4023-B30E-1F55CE5EA091";
paths = (
{
closed = 1;
nodes = (
"144 516 OFFCURVE",
"31 394 OFFCURVE",
"31 241 CURVE SMOOTH",
"31 87 OFFCURVE",
"127 -10 OFFCURVE",
"285 -10 CURVE SMOOTH",
"442 -10 OFFCURVE",
"548 101 OFFCURVE",
"548 263 CURVE SMOOTH",
"548 419 OFFCURVE",
"455 516 OFFCURVE",
"300 516 CURVE SMOOTH"
);
},
{
closed = 1;
nodes = (
"223 117 OFFCURVE",
"181 163 OFFCURVE",
"181 242 CURVE SMOOTH",
"181 327 OFFCURVE",
"229 389 OFFCURVE",
"296 389 CURVE SMOOTH",
"362 389 OFFCURVE",
"399 344 OFFCURVE",
"399 264 CURVE SMOOTH",
"399 174 OFFCURVE",
"358 117 OFFCURVE",
"289 117 CURVE SMOOTH"
);
}
);
width = 579;
}
);
leftKerningGroup = o;
note = o;
rightKerningGroup = o;
rightMetricsKey = "=|";
unicode = 006F;
},
{
color = 4;
glyphname = p;
lastChange = "2019-02-19 20:12:15 +0000";
layers = (
{
background = {
paths = (
{
closed = 1;
nodes = (
"139 1 LINE",
"143 83 LINE",
"137 76 LINE",
"159 23 OFFCURVE",
"211 -8 OFFCURVE",
"280 -8 CURVE SMOOTH",
"419 -8 OFFCURVE",
"514 103 OFFCURVE",
"514 274 CURVE SMOOTH",
"514 415 OFFCURVE",
"440 507 OFFCURVE",
"324 507 CURVE SMOOTH",
"226 507 OFFCURVE",
"151 446 OFFCURVE",
"131 349 CURVE",
"145 344 LINE",
"145 710 LINE",
"68 710 LINE",
"68 1 LINE"
);
},
{
closed = 1;
nodes = (
"189 64 OFFCURVE",
"146 116 OFFCURVE",
"146 215 CURVE SMOOTH",
"146 326 OFFCURVE",
"203 435 OFFCURVE",
"305 435 CURVE SMOOTH",
"386 435 OFFCURVE",
"434 374 OFFCURVE",
"434 268 CURVE SMOOTH",
"434 143 OFFCURVE",
"370 64 OFFCURVE",
"273 64 CURVE SMOOTH"
);
}
);
};
hints = (
{
horizontal = 1;
place = "{-166, 21}";
target = up;
type = BottomGhost;
},
{
horizontal = 1;
place = "{-8, 75}";
type = Stem;
},
{
horizontal = 1;
place = "{432, 75}";
type = Stem;
},
{
place = "{72, 77}";
type = Stem;
},
{
place = "{412, 77}";
type = Stem;
},
{
horizontal = 1;
place = "{498, -20}";
target = down;
type = TopGhost;
}
);
layerId = "A3B50665-EA37-4AC6-885C-1233CA61B6BD";
paths = (
{
closed = 1;
nodes = (
"145 -190 LINE",
"145 83 LINE",
"137 76 LINE",
"159 23 OFFCURVE",
"211 -8 OFFCURVE",
"280 -8 CURVE SMOOTH",
"419 -8 OFFCURVE",
"514 103 OFFCURVE",
"514 274 CURVE SMOOTH",
"514 415 OFFCURVE",
"440 507 OFFCURVE",
"324 507 CURVE SMOOTH",
"226 507 OFFCURVE",
"151 446 OFFCURVE",
"131 349 CURVE",
"144 345 LINE",
"144 499 LINE",
"68 499 LINE",
"68 -190 LINE"
);
},
{
closed = 1;
nodes = (
"189 64 OFFCURVE",
"146 116 OFFCURVE",
"146 215 CURVE SMOOTH",
"146 326 OFFCURVE",
"203 435 OFFCURVE",
"305 435 CURVE SMOOTH",
"386 435 OFFCURVE",
"434 374 OFFCURVE",
"434 268 CURVE SMOOTH",
"434 143 OFFCURVE",
"370 64 OFFCURVE",
"273 64 CURVE SMOOTH"
);
}
);
width = 559;
},
{
background = {
paths = (
{
closed = 1;
nodes = (
"179 0 LINE",
"199 84 LINE",
"189 66 LINE",
"209 22 OFFCURVE",
"260 -10 OFFCURVE",
"332 -10 CURVE SMOOTH",
"479 -10 OFFCURVE",
"588 94 OFFCURVE",
"588 267 CURVE SMOOTH",
"588 417 OFFCURVE",
"498 516 OFFCURVE",
"367 516 CURVE SMOOTH",
"278 516 OFFCURVE",
"200 465 OFFCURVE",
"176 385 CURVE",
"202 351 LINE",
"202 710 LINE",
"56 710 LINE",
"56 0 LINE"
);
},
{
closed = 1;
nodes = (
"241 117 OFFCURVE",
"202 156 OFFCURVE",
"202 238 CURVE SMOOTH",
"202 319 OFFCURVE",
"248 389 OFFCURVE",
"327 389 CURVE SMOOTH",
"392 389 OFFCURVE",
"433 344 OFFCURVE",
"433 267 CURVE SMOOTH",
"433 178 OFFCURVE",
"386 117 OFFCURVE",
"310 117 CURVE SMOOTH"
);
}
);
};
hints = (
{
horizontal = 1;
place = "{-174, 21}";
target = up;
type = BottomGhost;
},
{
horizontal = 1;
place = "{-8, 129}";
type = Stem;
},
{
horizontal = 1;
place = "{386, 129}";
type = Stem;
},
{
place = "{54, 134}";
type = Stem;
},
{
place = "{374, 134}";
type = Stem;
},
{
horizontal = 1;
place = "{386, 112}";
type = Stem;
},
{
place = "{54, 115}";
type = Stem;
}
);
layerId = "014D4A40-7C7F-4023-B30E-1F55CE5EA091";
paths = (
{
closed = 1;
nodes = (
"202 -190 LINE",
"202 84 LINE",
"189 66 LINE",
"209 22 OFFCURVE",
"259 -10 OFFCURVE",
"340 -10 CURVE SMOOTH",
"476 -10 OFFCURVE",
"584 94 OFFCURVE",
"584 267 CURVE SMOOTH",
"584 417 OFFCURVE",
"495 516 OFFCURVE",
"365 516 CURVE SMOOTH",
"278 516 OFFCURVE",
"200 462 OFFCURVE",
"176 382 CURVE",
"201 351 LINE",
"201 508 LINE",
"56 508 LINE",
"56 -190 LINE"
);
},
{
closed = 1;
nodes = (
"241 117 OFFCURVE",
"202 156 OFFCURVE",
"202 238 CURVE SMOOTH",
"202 319 OFFCURVE",
"248 389 OFFCURVE",
"327 389 CURVE SMOOTH",
"392 389 OFFCURVE",
"433 344 OFFCURVE",
"433 267 CURVE SMOOTH",
"433 178 OFFCURVE",
"386 117 OFFCURVE",
"310 117 CURVE SMOOTH"
);
}
);
width = 615;
}
);
leftMetricsKey = n;
note = p;
rightMetricsKey = o;
unicode = 0070;
},
{
color = 4;
glyphname = s;
lastChange = "2019-02-19 16:29:21 +0000";
layers = (
{
background = {
paths = (
{
closed = 1;
nodes = (
"711 -8 OFFCURVE",
"789 52 OFFCURVE",
"789 138 CURVE SMOOTH",
"789 211 OFFCURVE",
"740 248 OFFCURVE",
"682 267 CURVE SMOOTH",
"587 299 LINE SMOOTH",
"552 311 OFFCURVE",
"534 331 OFFCURVE",
"534 363 CURVE SMOOTH",
"534 406 OFFCURVE",
"569 435 OFFCURVE",
"635 435 CURVE SMOOTH",
"673 435 OFFCURVE",
"710 425 OFFCURVE",
"749 404 CURVE",
"771 472 LINE",
"742 492 OFFCURVE",
"685 506 OFFCURVE",
"634 506 CURVE SMOOTH",
"526 506 OFFCURVE",
"453 442 OFFCURVE",
"453 360 CURVE SMOOTH",
"453 291 OFFCURVE",
"493 251 OFFCURVE",
"550 232 CURVE SMOOTH",
"645 200 LINE SMOOTH",
"683 187 OFFCURVE",
"709 170 OFFCURVE",
"709 137 CURVE SMOOTH",
"709 84 OFFCURVE",
"662 63 OFFCURVE",
"600 63 CURVE SMOOTH",
"554 63 OFFCURVE",
"506 75 OFFCURVE",
"467 98 CURVE",
"438 30 LINE",
"479 5 OFFCURVE",
"533 -8 OFFCURVE",
"600 -8 CURVE SMOOTH"
);
},
{
closed = 1;
nodes = (
"307 -8 OFFCURVE",
"386 52 OFFCURVE",
"387 138 CURVE SMOOTH",
"388 211 OFFCURVE",
"340 248 OFFCURVE",
"282 267 CURVE SMOOTH",
"188 299 LINE SMOOTH",
"153 311 OFFCURVE",
"135 331 OFFCURVE",
"136 363 CURVE SMOOTH",
"137 406 OFFCURVE",
"172 435 OFFCURVE",
"238 435 CURVE SMOOTH",
"276 435 OFFCURVE",
"313 425 OFFCURVE",
"352 404 CURVE",
"375 472 LINE",
"346 492 OFFCURVE",
"289 506 OFFCURVE",
"238 506 CURVE SMOOTH",
"130 506 OFFCURVE",
"56 442 OFFCURVE",
"55 360 CURVE SMOOTH",
"54 291 OFFCURVE",
"93 251 OFFCURVE",
"150 232 CURVE SMOOTH",
"244 200 LINE SMOOTH",
"282 187 OFFCURVE",
"308 170 OFFCURVE",
"307 137 CURVE SMOOTH",
"306 84 OFFCURVE",
"259 63 OFFCURVE",
"197 63 CURVE SMOOTH",
"151 63 OFFCURVE",
"103 75 OFFCURVE",
"64 98 CURVE",
"34 30 LINE",
"75 5 OFFCURVE",
"129 -8 OFFCURVE",
"196 -8 CURVE SMOOTH"
);
}
);
};
hints = (
{
horizontal = 1;
place = "{-8, 75}";
type = Stem;
},
{
horizontal = 1;
place = "{432, 75}";
type = Stem;
},
{
place = "{55, 83}";
type = Stem;
},
{
place = "{358, 82}";
type = Stem;
}
);
layerId = "A3B50665-EA37-4AC6-885C-1233CA61B6BD";
paths = (
{
closed = 1;
nodes = (
"308 -8 OFFCURVE",
"387 53 OFFCURVE",
"387 140 CURVE SMOOTH",
"387 212 OFFCURVE",
"339 248 OFFCURVE",
"282 267 CURVE SMOOTH",
"188 299 LINE SMOOTH",
"154 311 OFFCURVE",
"136 330 OFFCURVE",
"136 360 CURVE SMOOTH",
"136 405 OFFCURVE",
"171 435 OFFCURVE",
"238 435 CURVE SMOOTH",
"276 435 OFFCURVE",
"313 425 OFFCURVE",
"352 404 CURVE",
"375 472 LINE",
"346 492 OFFCURVE",
"289 506 OFFCURVE",
"238 506 CURVE SMOOTH",
"129 506 OFFCURVE",
"55 440 OFFCURVE",
"55 357 CURVE SMOOTH",
"55 290 OFFCURVE",
"94 251 OFFCURVE",
"150 232 CURVE SMOOTH",
"244 200 LINE SMOOTH",
"281 187 OFFCURVE",
"307 171 OFFCURVE",
"307 139 CURVE SMOOTH",
"307 85 OFFCURVE",
"260 63 OFFCURVE",
"197 63 CURVE SMOOTH",
"151 63 OFFCURVE",
"103 75 OFFCURVE",
"64 98 CURVE",
"34 30 LINE",
"75 5 OFFCURVE",
"129 -8 OFFCURVE",
"196 -8 CURVE SMOOTH"
);
}
);
width = 420;
},
{
background = {
paths = (
{
closed = 1;
nodes = (
"836 -10 OFFCURVE",
"920 54 OFFCURVE",
"920 155 CURVE SMOOTH",
"920 214 OFFCURVE",
"886 270 OFFCURVE",
"804 296 CURVE SMOOTH",
"721 322 LINE SMOOTH",
"698 329 OFFCURVE",
"686 337 OFFCURVE",
"686 353 CURVE SMOOTH",
"686 378 OFFCURVE",
"715 394 OFFCURVE",
"757 394 CURVE SMOOTH",
"799 394 OFFCURVE",
"833 385 OFFCURVE",
"870 366 CURVE",
"907 481 LINE",
"873 503 OFFCURVE",
"819 516 OFFCURVE",
"761 516 CURVE SMOOTH",
"622 516 OFFCURVE",
"540 445 OFFCURVE",
"540 345 CURVE SMOOTH",
"540 283 OFFCURVE",
"574 226 OFFCURVE",
"658 200 CURVE SMOOTH",
"741 174 LINE SMOOTH",
"764 167 OFFCURVE",
"774 161 OFFCURVE",
"774 144 CURVE SMOOTH",
"774 123 OFFCURVE",
"753 112 OFFCURVE",
"711 112 CURVE SMOOTH",
"672 112 OFFCURVE",
"621 122 OFFCURVE",
"577 146 CURVE",
"529 33 LINE",
"576 4 OFFCURVE",
"637 -10 OFFCURVE",
"704 -10 CURVE SMOOTH"
);
},
{
closed = 1;
nodes = (
"331 -10 OFFCURVE",
"417 54 OFFCURVE",
"418 155 CURVE SMOOTH",
"419 214 OFFCURVE",
"386 270 OFFCURVE",
"305 296 CURVE SMOOTH",
"222 322 LINE SMOOTH",
"199 329 OFFCURVE",
"187 337 OFFCURVE",
"188 353 CURVE SMOOTH",
"188 378 OFFCURVE",
"217 394 OFFCURVE",
"259 394 CURVE SMOOTH",
"301 394 OFFCURVE",
"335 385 OFFCURVE",
"372 366 CURVE",
"411 481 LINE",
"377 503 OFFCURVE",
"324 516 OFFCURVE",
"265 516 CURVE SMOOTH",
"127 516 OFFCURVE",
"43 445 OFFCURVE",
"42 345 CURVE SMOOTH",
"41 283 OFFCURVE",
"74 226 OFFCURVE",
"157 200 CURVE SMOOTH",
"240 174 LINE SMOOTH",
"262 167 OFFCURVE",
"272 161 OFFCURVE",
"272 144 CURVE SMOOTH",
"272 123 OFFCURVE",
"251 112 OFFCURVE",
"209 112 CURVE SMOOTH",
"170 112 OFFCURVE",
"119 122 OFFCURVE",
"75 146 CURVE",
"25 33 LINE",
"72 4 OFFCURVE",
"132 -10 OFFCURVE",
"199 -10 CURVE SMOOTH"
);
}
);
};
hints = (
{
horizontal = 1;
place = "{-8, 125}";
type = Stem;
},
{
horizontal = 1;
place = "{389, 125}";
type = Stem;
},
{
place = "{35, 144}";
type = Stem;
},
{
place = "{321, 143}";
type = Stem;
}
);
layerId = "014D4A40-7C7F-4023-B30E-1F55CE5EA091";
paths = (
{
closed = 1;
nodes = (
"332 -10 OFFCURVE",
"418 55 OFFCURVE",
"418 158 CURVE SMOOTH",
"418 216 OFFCURVE",
"385 270 OFFCURVE",
"305 296 CURVE SMOOTH",
"222 322 LINE SMOOTH",
"200 329 OFFCURVE",
"188 336 OFFCURVE",
"188 351 CURVE SMOOTH",
"188 377 OFFCURVE",
"216 394 OFFCURVE",
"259 394 CURVE SMOOTH",
"301 394 OFFCURVE",
"335 385 OFFCURVE",
"372 366 CURVE",
"411 481 LINE",
"377 503 OFFCURVE",
"324 516 OFFCURVE",
"265 516 CURVE SMOOTH",
"126 516 OFFCURVE",
"42 444 OFFCURVE",
"42 342 CURVE SMOOTH",
"42 281 OFFCURVE",
"75 226 OFFCURVE",
"157 200 CURVE SMOOTH",
"240 174 LINE SMOOTH",
"262 167 OFFCURVE",
"272 161 OFFCURVE",
"272 144 CURVE SMOOTH",
"272 123 OFFCURVE",
"251 112 OFFCURVE",
"209 112 CURVE SMOOTH",
"170 112 OFFCURVE",
"119 122 OFFCURVE",
"75 146 CURVE",
"25 33 LINE",
"72 4 OFFCURVE",
"132 -10 OFFCURVE",
"199 -10 CURVE SMOOTH"
);
}
);
width = 444;
}
);
note = s;
unicode = 0073;
},
{
color = 4;
glyphname = t;
lastChange = "2019-02-19 16:29:28 +0000";
layers = (
{
background = {
paths = (
{
closed = 1;
nodes = (
"1136 -10 OFFCURVE",
"1190 16 OFFCURVE",
"1225 68 CURVE",
"1182 116 LINE",
"1158 79 OFFCURVE",
"1117 59 OFFCURVE",
"1080 59 CURVE SMOOTH",
"1005 59 OFFCURVE",
"969 98 OFFCURVE",
"970 180 CURVE SMOOTH",
"977 600 LINE",
"947 600 LINE",
"810 466 LINE",
"810 443 LINE",
"896 443 LINE",
"893 171 LINE SMOOTH",
"892 59 OFFCURVE",
"959 -10 OFFCURVE",
"1070 -10 CURVE SMOOTH"
);
},
{
closed = 1;
nodes = (
"1181 443 LINE",
"1181 508 LINE",
"954 508 LINE",
"954 443 LINE"
);
},
{
closed = 1;
nodes = (
"325 -10 OFFCURVE",
"374 4 OFFCURVE",
"408 28 CURVE",
"373 144 LINE",
"337 128 OFFCURVE",
"314 121 OFFCURVE",
"285 121 CURVE SMOOTH",
"224 121 OFFCURVE",
"203 154 OFFCURVE",
"204 228 CURVE SMOOTH",
"209 600 LINE",
"83 600 LINE",
"62 508 LINE",
"58 215 LINE SMOOTH",
"56 64 OFFCURVE",
"126 -10 OFFCURVE",
"272 -10 CURVE SMOOTH"
);
},
{
closed = 1;
nodes = (
"369 385 LINE",
"369 508 LINE",
"-16 508 LINE",
"-16 385 LINE"
);
}
);
};
layerId = "A3B50665-EA37-4AC6-885C-1233CA61B6BD";
paths = (
{
closed = 1;
nodes = (
"309 -10 OFFCURVE",
"348 1 OFFCURVE",
"379 21 CURVE",
"357 81 LINE",
"327 66 OFFCURVE",
"302 60 OFFCURVE",
"269 60 CURVE SMOOTH",
"205 60 OFFCURVE",
"169 104 OFFCURVE",
"170 180 CURVE SMOOTH",
"174 600 LINE",
"112 600 LINE",
"95 497 LINE",
"93 171 LINE SMOOTH",
"92 59 OFFCURVE",
"158 -10 OFFCURVE",
"268 -10 CURVE SMOOTH"
);
},
{
closed = 1;
nodes = (
"346 432 LINE",
"346 498 LINE",
"7 498 LINE",
"7 432 LINE"
);
}
);
width = 374;
},
{
background = {
paths = (
{
closed = 1;
nodes = (
"342 -10 OFFCURVE",
"402 6 OFFCURVE",
"437 28 CURVE",
"400 147 LINE",
"363 131 OFFCURVE",
"339 124 OFFCURVE",
"309 124 CURVE SMOOTH",
"253 124 OFFCURVE",
"222 156 OFFCURVE",
"223 228 CURVE SMOOTH",
"228 600 LINE",
"168 600 LINE",
"-5 446 LINE",
"-5 387 LINE",
"80 387 LINE",
"77 205 LINE SMOOTH",
"75 64 OFFCURVE",
"158 -10 OFFCURVE",
"288 -10 CURVE SMOOTH"
);
},
{
closed = 1;
nodes = (
"406 387 LINE",
"406 508 LINE",
"169 508 LINE",
"169 387 LINE"
);
}
);
};
guideLines = (
{
angle = 268.9258;
position = "{222, 307}";
}
);
layerId = "014D4A40-7C7F-4023-B30E-1F55CE5EA091";
paths = (
{
closed = 1;
nodes = (
"346 -10 OFFCURVE",
"395 4 OFFCURVE",
"429 28 CURVE",
"394 144 LINE",
"358 128 OFFCURVE",
"335 121 OFFCURVE",
"306 121 CURVE SMOOTH",
"245 121 OFFCURVE",
"224 154 OFFCURVE",
"225 228 CURVE SMOOTH",
"230 600 LINE",
"104 600 LINE",
"83 508 LINE",
"79 215 LINE SMOOTH",
"77 64 OFFCURVE",
"147 -10 OFFCURVE",
"293 -10 CURVE SMOOTH"
);
},
{
closed = 1;
nodes = (
"390 385 LINE",
"390 508 LINE",
"-2 508 LINE",
"-2 385 LINE"
);
}
);
width = 425;
}
);
unicode = 0074;
},
{
color = 4;
glyphname = u;
lastChange = "2019-02-19 16:29:34 +0000";
layers = (
{
background = {
paths = (
{
closed = 1;
nodes = (
"420 498 LINE",
"420 294 LINE SMOOTH",
"420 172 OFFCURVE",
"360 66 OFFCURVE",
"259 66 CURVE SMOOTH",
"186 66 OFFCURVE",
"144 119 OFFCURVE",
"144 222 CURVE SMOOTH",
"144 498 LINE",
"66 498 LINE",
"66 215 LINE SMOOTH",
"66 74 OFFCURVE",
"136 -8 OFFCURVE",
"248 -8 CURVE SMOOTH",
"338 -8 OFFCURVE",
"411 50 OFFCURVE",
"431 151 CURVE",
"421 163 LINE",
"421 0 LINE",
"498 0 LINE",
"498 498 LINE"
);
}
);
};
hints = (
{
horizontal = 1;
place = "{-8, 75}";
type = Stem;
},
{
horizontal = 1;
place = "{498, -20}";
target = down;
type = TopGhost;
},
{
place = "{68, 77}";
type = Stem;
},
{
place = "{397, 77}";
type = Stem;
},
{
horizontal = 1;
place = "{0, 21}";
target = up;
type = BottomGhost;
}
);
layerId = "A3B50665-EA37-4AC6-885C-1233CA61B6BD";
paths = (
{
closed = 1;
nodes = (
"420 498 LINE",
"420 391 LINE SMOOTH",
"420 178 OFFCURVE",
"348 65 OFFCURVE",
"247 65 CURVE SMOOTH",
"178 65 OFFCURVE",
"143 110 OFFCURVE",
"144 215 CURVE SMOOTH",
"146 498 LINE",
"68 498 LINE",
"66 212 LINE SMOOTH",
"65 65 OFFCURVE",
"127 -8 OFFCURVE",
"238 -8 CURVE SMOOTH",
"326 -8 OFFCURVE",
"413 62 OFFCURVE",
"435 175 CURVE",
"421 156 LINE",
"421 0 LINE",
"496 0 LINE",
"496 498 LINE"
);
}
);
width = 564;
},
{
background = {
paths = (
{
closed = 1;
nodes = (
"419 508 LINE",
"417 396 LINE SMOOTH",
"414 180 OFFCURVE",
"345 127 OFFCURVE",
"285 127 CURVE SMOOTH",
"227 127 OFFCURVE",
"202 163 OFFCURVE",
"203 269 CURVE SMOOTH",
"205 508 LINE",
"57 508 LINE",
"55 268 LINE SMOOTH",
"53 72 OFFCURVE",
"121 -10 OFFCURVE",
"249 -10 CURVE SMOOTH",
"337 -10 OFFCURVE",
"420 47 OFFCURVE",
"440 182 CURVE",
"418 157 LINE",
"418 0 LINE",
"563 0 LINE",
"563 508 LINE"
);
}
);
};
hints = (
{
horizontal = 1;
place = "{-8, 129}";
type = Stem;
},
{
horizontal = 1;
place = "{498, -20}";
target = down;
type = TopGhost;
},
{
place = "{50, 134}";
type = Stem;
},
{
place = "{360, 134}";
type = Stem;
},
{
horizontal = 1;
place = "{0, 21}";
target = up;
type = BottomGhost;
},
{
place = "{379, 115}";
type = Stem;
}
);
layerId = "014D4A40-7C7F-4023-B30E-1F55CE5EA091";
paths = (
{
closed = 1;
nodes = (
"414 508 LINE",
"414 386 LINE SMOOTH",
"414 180 OFFCURVE",
"343 127 OFFCURVE",
"279 127 CURVE SMOOTH",
"230 127 OFFCURVE",
"200 153 OFFCURVE",
"201 229 CURVE SMOOTH",
"203 508 LINE",
"56 508 LINE",
"54 218 LINE SMOOTH",
"53 62 OFFCURVE",
"112 -10 OFFCURVE",
"240 -10 CURVE SMOOTH",
"327 -10 OFFCURVE",
"417 50 OFFCURVE",
"439 175 CURVE",
"415 157 LINE",
"415 0 LINE",
"559 0 LINE",
"559 508 LINE"
);
}
);
width = 615;
}
);
leftMetricsKey = "=|n";
note = u;
rightMetricsKey = "=|n";
unicode = 0075;
},
{
color = 4;
glyphname = v;
lastChange = "2019-02-19 16:29:40 +0000";
layers = (
{
background = {
paths = (
{
closed = 1;
nodes = (
"319 -22 LINE",
"511 498 LINE",
"427 498 LINE",
"256 26 LINE",
"252 17 LINE",
"237 -22 LINE"
);
},
{
closed = 1;
nodes = (
"282 -22 LINE",
"128 501 LINE",
"40 501 LINE",
"199 -22 LINE"
);
}
);
};
layerId = "A3B50665-EA37-4AC6-885C-1233CA61B6BD";
paths = (
{
closed = 1;
nodes = (
"248 24 LINE",
"276 23 LINE",
"128 498 LINE",
"40 498 LINE",
"199 0 LINE",
"319 0 LINE",
"511 498 LINE",
"427 498 LINE"
);
}
);
width = 520;
},
{
background = {
paths = (
{
closed = 1;
nodes = (
"319 0 LINE",
"170 508 LINE",
"12 508 LINE",
"171 0 LINE"
);
},
{
closed = 1;
nodes = (
"380 -2 LINE",
"567 508 LINE",
"422 508 LINE",
"277 100 LINE",
"256 59 LINE",
"237 0 LINE"
);
}
);
};
guideLines = (
{
angle = 68.7799;
position = "{322, 235}";
}
);
layerId = "014D4A40-7C7F-4023-B30E-1F55CE5EA091";
paths = (
{
closed = 1;
nodes = (
"267 71 LINE",
"299 70 LINE",
"170 508 LINE",
"12 508 LINE",
"171 0 LINE",
"381 0 LINE",
"567 508 LINE",
"422 508 LINE"
);
}
);
width = 549;
}
);
unicode = 0076;
},
{
color = 4;
glyphname = y;
lastChange = "2019-02-19 16:29:43 +0000";
layers = (
{
background = {
paths = (
{
closed = 1;
nodes = (
"248 24 LINE",
"276 23 LINE",
"128 498 LINE",
"40 498 LINE",
"199 0 LINE",
"319 0 LINE",
"511 498 LINE",
"427 498 LINE"
);
}
);
};
layerId = "A3B50665-EA37-4AC6-885C-1233CA61B6BD";
paths = (
{
closed = 1;
nodes = (
"190 -200 OFFCURVE",
"265 -142 OFFCURVE",
"315 -12 CURVE SMOOTH",
"511 498 LINE",
"427 498 LINE",
"250 26 LINE",
"244 17 LINE",
"238 1 LINE SMOOTH",
"202 -96 OFFCURVE",
"164 -130 OFFCURVE",
"82 -130 CURVE SMOOTH",
"55 -130 OFFCURVE",
"28 -125 OFFCURVE",
"3 -118 CURVE",
"-12 -187 LINE",
"10 -195 OFFCURVE",
"48 -200 OFFCURVE",
"84 -200 CURVE SMOOTH"
);
},
{
closed = 1;
nodes = (
"283 0 LINE",
"128 498 LINE",
"40 498 LINE",
"199 0 LINE"
);
}
);
width = 520;
},
{
background = {
paths = (
{
closed = 1;
nodes = (
"212 -200 OFFCURVE",
"306 -180 OFFCURVE",
"361 -38 CURVE SMOOTH",
"573 507 LINE",
"428 507 LINE",
"279 100 LINE",
"256 59 LINE",
"229 -7 LINE SMOOTH",
"210 -55 OFFCURVE",
"179 -76 OFFCURVE",
"126 -76 CURVE SMOOTH",
"94 -76 OFFCURVE",
"60 -69 OFFCURVE",
"39 -61 CURVE",
"16 -179 LINE",
"45 -194 OFFCURVE",
"88 -200 OFFCURVE",
"131 -200 CURVE SMOOTH"
);
},
{
closed = 1;
nodes = (
"269 0 LINE",
"302 106 LINE",
"190 507 LINE",
"32 507 LINE",
"189 0 LINE"
);
}
);
};
guideLines = (
{
angle = 68.7799;
position = "{322, 235}";
}
);
layerId = "014D4A40-7C7F-4023-B30E-1F55CE5EA091";
paths = (
{
closed = 1;
nodes = (
"211 -200 OFFCURVE",
"315 -171 OFFCURVE",
"381 6 CURVE SMOOTH",
"567 508 LINE",
"422 508 LINE",
"277 100 LINE",
"256 59 LINE",
"237 10 LINE SMOOTH",
"212 -55 OFFCURVE",
"180 -76 OFFCURVE",
"121 -76 CURVE SMOOTH",
"91 -76 OFFCURVE",
"55 -69 OFFCURVE",
"33 -63 CURVE",
"12 -181 LINE",
"42 -194 OFFCURVE",
"83 -200 OFFCURVE",
"127 -200 CURVE SMOOTH"
);
},
{
closed = 1;
nodes = (
"319 0 LINE",
"170 508 LINE",
"12 508 LINE",
"171 0 LINE"
);
}
);
width = 549;
}
);
widthMetricsKey = v;
rightMetricsKey = v;
unicode = 0079;
},
{
color = 4;
glyphname = a.ss01;
lastChange = "2019-02-19 20:12:15 +0000";
layers = (
{
background = {
paths = (
{
closed = 1;
nodes = (
"368 435 OFFCURVE",
"414 387 OFFCURVE",
"414 284 CURVE SMOOTH",
"414 140 OFFCURVE",
"331 64 OFFCURVE",
"252 64 CURVE SMOOTH",
"172 64 OFFCURVE",
"126 126 OFFCURVE",
"126 231 CURVE SMOOTH",
"126 349 OFFCURVE",
"186 435 OFFCURVE",
"289 435 CURVE SMOOTH"
);
},
{
closed = 1;
nodes = (
"492 498 LINE",
"421 498 LINE",
"417 416 LINE",
"423 423 LINE",
"401 476 OFFCURVE",
"350 507 OFFCURVE",
"283 507 CURVE SMOOTH",
"154 507 OFFCURVE",
"45 401 OFFCURVE",
"45 225 CURVE SMOOTH",
"45 82 OFFCURVE",
"122 -8 OFFCURVE",
"238 -8 CURVE SMOOTH",
"330 -8 OFFCURVE",
"406 50 OFFCURVE",
"426 150 CURVE",
"414 210 LINE",
"414 139 LINE SMOOTH",
"414 45 OFFCURVE",
"463 -8 OFFCURVE",
"548 -8 CURVE SMOOTH",
"586 -8 OFFCURVE",
"620 3 OFFCURVE",
"642 24 CURVE",
"611 81 LINE",
"598 74 OFFCURVE",
"580 62 OFFCURVE",
"556 62 CURVE SMOOTH",
"516 62 OFFCURVE",
"492 91 OFFCURVE",
"492 144 CURVE SMOOTH"
);
}
);
};
hints = (
{
horizontal = 1;
place = "{-8, 75}";
type = Stem;
},
{
horizontal = 1;
place = "{432, 75}";
type = Stem;
},
{
horizontal = 1;
place = "{664, -20}";
target = down;
type = TopGhost;
},
{
place = "{64, 77}";
type = Stem;
},
{
place = "{404, 77}";
type = Stem;
},
{
horizontal = 1;
place = "{0, 21}";
target = up;
type = BottomGhost;
}
);
layerId = "A3B50665-EA37-4AC6-885C-1233CA61B6BD";
paths = (
{
closed = 1;
nodes = (
"368 435 OFFCURVE",
"414 387 OFFCURVE",
"414 284 CURVE SMOOTH",
"414 140 OFFCURVE",
"331 64 OFFCURVE",
"252 64 CURVE SMOOTH",
"172 64 OFFCURVE",
"126 126 OFFCURVE",
"126 231 CURVE SMOOTH",
"126 349 OFFCURVE",
"186 435 OFFCURVE",
"289 435 CURVE SMOOTH"
);
},
{
closed = 1;
nodes = (
"492 498 LINE",
"421 498 LINE",
"417 416 LINE",
"423 423 LINE",
"401 476 OFFCURVE",
"350 507 OFFCURVE",
"283 507 CURVE SMOOTH",
"154 507 OFFCURVE",
"45 401 OFFCURVE",
"45 225 CURVE SMOOTH",
"45 82 OFFCURVE",
"122 -8 OFFCURVE",
"238 -8 CURVE SMOOTH",
"330 -8 OFFCURVE",
"406 50 OFFCURVE",
"426 150 CURVE",
"414 210 LINE",
"414 121 LINE SMOOTH",
"414 38 OFFCURVE",
"460 -8 OFFCURVE",
"533 -8 CURVE SMOOTH",
"569 -8 OFFCURVE",
"599 2 OFFCURVE",
"621 22 CURVE",
"591 78 LINE",
"580 71 OFFCURVE",
"563 62 OFFCURVE",
"544 62 CURVE SMOOTH",
"513 62 OFFCURVE",
"492 87 OFFCURVE",
"492 133 CURVE SMOOTH"
);
}
);
width = 599;
},
{
background = {
paths = (
{
closed = 1;
nodes = (
"374 390 OFFCURVE",
"413 351 OFFCURVE",
"413 269 CURVE SMOOTH",
"413 178 OFFCURVE",
"359 118 OFFCURVE",
"288 118 CURVE SMOOTH",
"223 118 OFFCURVE",
"182 163 OFFCURVE",
"182 242 CURVE SMOOTH",
"182 323 OFFCURVE",
"228 390 OFFCURVE",
"308 390 CURVE SMOOTH"
);
},
{
closed = 1;
nodes = (
"559 506 LINE",
"436 506 LINE",
"416 422 LINE",
"426 440 LINE",
"408 484 OFFCURVE",
"357 516 OFFCURVE",
"284 516 CURVE SMOOTH",
"120 516 OFFCURVE",
"31 378 OFFCURVE",
"31 239 CURVE SMOOTH",
"31 89 OFFCURVE",
"122 -10 OFFCURVE",
"260 -10 CURVE SMOOTH",
"347 -10 OFFCURVE",
"415 41 OFFCURVE",
"436 121 CURVE",
"413 209 LINE",
"413 139 LINE SMOOTH",
"413 51 OFFCURVE",
"469 -10 OFFCURVE",
"568 -10 CURVE SMOOTH",
"612 -10 OFFCURVE",
"655 2 OFFCURVE",
"676 18 CURVE",
"642 129 LINE",
"632 122 OFFCURVE",
"618 117 OFFCURVE",
"602 117 CURVE SMOOTH",
"572 117 OFFCURVE",
"559 136 OFFCURVE",
"559 162 CURVE SMOOTH"
);
}
);
};
hints = (
{
horizontal = 1;
place = "{-8, 129}";
type = Stem;
},
{
horizontal = 1;
place = "{386, 129}";
type = Stem;
},
{
horizontal = 1;
place = "{672, -20}";
target = down;
type = TopGhost;
},
{
place = "{46, 134}";
type = Stem;
},
{
place = "{366, 134}";
type = Stem;
},
{
horizontal = 1;
place = "{0, 21}";
target = up;
type = BottomGhost;
},
{
place = "{385, 115}";
type = Stem;
}
);
layerId = "014D4A40-7C7F-4023-B30E-1F55CE5EA091";
paths = (
{
closed = 1;
nodes = (
"374 390 OFFCURVE",
"413 351 OFFCURVE",
"413 269 CURVE SMOOTH",
"413 178 OFFCURVE",
"359 118 OFFCURVE",
"288 118 CURVE SMOOTH",
"223 118 OFFCURVE",
"182 163 OFFCURVE",
"182 242 CURVE SMOOTH",
"182 323 OFFCURVE",
"228 390 OFFCURVE",
"308 390 CURVE SMOOTH"
);
},
{
closed = 1;
nodes = (
"559 506 LINE",
"436 506 LINE",
"416 422 LINE",
"426 440 LINE",
"408 484 OFFCURVE",
"357 516 OFFCURVE",
"284 516 CURVE SMOOTH",
"120 516 OFFCURVE",
"31 378 OFFCURVE",
"31 239 CURVE SMOOTH",
"31 89 OFFCURVE",
"122 -10 OFFCURVE",
"260 -10 CURVE SMOOTH",
"347 -10 OFFCURVE",
"415 41 OFFCURVE",
"436 121 CURVE",
"413 209 LINE",
"413 119 LINE SMOOTH",
"413 41 OFFCURVE",
"469 -10 OFFCURVE",
"558 -10 CURVE SMOOTH",
"604 -10 OFFCURVE",
"647 2 OFFCURVE",
"668 18 CURVE",
"634 127 LINE",
"624 122 OFFCURVE",
"613 117 OFFCURVE",
"597 117 CURVE SMOOTH",
"577 117 OFFCURVE",
"559 127 OFFCURVE",
"559 157 CURVE SMOOTH"
);
}
);
width = 648;
}
);
leftMetricsKey = o;
note = d;
},
{
color = 4;
glyphname = e.ss01;
lastChange = "2019-02-19 20:12:47 +0000";
layers = (
{
background = {
paths = (
{
closed = 1;
nodes = (
"1059 -8 OFFCURVE",
"1131 17 OFFCURVE",
"1157 42 CURVE",
"1129 104 LINE",
"1088 78 OFFCURVE",
"1044 63 OFFCURVE",
"990 63 CURVE SMOOTH",
"895 63 OFFCURVE",
"825 117 OFFCURVE",
"825 231 CURVE SMOOTH",
"825 246 LINE SMOOTH",
"825 374 OFFCURVE",
"902 440 OFFCURVE",
"981 440 CURVE SMOOTH",
"1065 440 OFFCURVE",
"1117 378 OFFCURVE",
"1113 270 CURVE",
"1123 286 LINE",
"810 286 LINE",
"810 220 LINE",
"1185 220 LINE",
"1199 393 OFFCURVE",
"1122 507 OFFCURVE",
"984 507 CURVE SMOOTH",
"842 507 OFFCURVE",
"745 390 OFFCURVE",
"745 236 CURVE SMOOTH",
"745 78 OFFCURVE",
"846 -8 OFFCURVE",
"986 -8 CURVE SMOOTH"
);
},
{
closed = 1;
nodes = (
"142 507 OFFCURVE",
"45 398 OFFCURVE",
"45 243 CURVE SMOOTH",
"45 89 OFFCURVE",
"131 -8 OFFCURVE",
"270 -8 CURVE SMOOTH",
"410 -8 OFFCURVE",
"506 101 OFFCURVE",
"506 257 CURVE SMOOTH",
"506 410 OFFCURVE",
"420 507 OFFCURVE",
"282 507 CURVE SMOOTH"
);
},
{
closed = 1;
nodes = (
"178 63 OFFCURVE",
"124 126 OFFCURVE",
"124 238 CURVE SMOOTH",
"124 356 OFFCURVE",
"187 436 OFFCURVE",
"280 436 CURVE SMOOTH",
"374 436 OFFCURVE",
"428 373 OFFCURVE",
"428 262 CURVE SMOOTH",
"428 143 OFFCURVE",
"366 63 OFFCURVE",
"273 63 CURVE SMOOTH"
);
}
);
};
hints = (
{
horizontal = 1;
place = "{-8, 75}";
type = Stem;
},
{
horizontal = 1;
place = "{433, 74}";
type = Stem;
},
{
place = "{64, 76}";
type = Stem;
},
{
place = "{389, 80}";
type = Stem;
}
);
layerId = "A3B50665-EA37-4AC6-885C-1233CA61B6BD";
paths = (
{
closed = 1;
nodes = (
"354 -8 OFFCURVE",
"428 12 OFFCURVE",
"456 34 CURVE",
"429 94 LINE",
"383 73 OFFCURVE",
"341 63 OFFCURVE",
"294 63 CURVE SMOOTH",
"189 63 OFFCURVE",
"125 122 OFFCURVE",
"125 231 CURVE SMOOTH",
"125 246 LINE SMOOTH",
"125 365 OFFCURVE",
"193 440 OFFCURVE",
"301 440 CURVE SMOOTH",
"366 440 OFFCURVE",
"408 408 OFFCURVE",
"408 359 CURVE SMOOTH",
"408 304 OFFCURVE",
"366 270 OFFCURVE",
"271 267 CURVE SMOOTH",
"110 263 LINE",
"110 198 LINE",
"274 204 LINE SMOOTH",
"405 208 OFFCURVE",
"481 266 OFFCURVE",
"481 362 CURVE SMOOTH",
"481 447 OFFCURVE",
"408 507 OFFCURVE",
"304 507 CURVE SMOOTH",
"149 507 OFFCURVE",
"45 398 OFFCURVE",
"45 236 CURVE SMOOTH",
"45 82 OFFCURVE",
"140 -8 OFFCURVE",
"290 -8 CURVE SMOOTH"
);
}
);
width = 530;
},
{
background = {
paths = (
{
closed = 1;
nodes = (
"1073 -10 OFFCURVE",
"1145 3 OFFCURVE",
"1194 30 CURVE",
"1151 144 LINE",
"1109 125 OFFCURVE",
"1062 116 OFFCURVE",
"1015 116 CURVE SMOOTH",
"927 116 OFFCURVE",
"876 164 OFFCURVE",
"876 245 CURVE SMOOTH",
"876 258 LINE SMOOTH",
"876 339 OFFCURVE",
"928 408 OFFCURVE",
"1014 408 CURVE SMOOTH",
"1055 408 OFFCURVE",
"1083 391 OFFCURVE",
"1083 356 CURVE SMOOTH",
"1083 322 OFFCURVE",
"1062 297 OFFCURVE",
"988 290 CURVE SMOOTH",
"852 278 LINE",
"852 174 LINE",
"997 187 LINE SMOOTH",
"1151 201 OFFCURVE",
"1221 265 OFFCURVE",
"1221 360 CURVE SMOOTH",
"1221 451 OFFCURVE",
"1139 516 OFFCURVE",
"1021 516 CURVE SMOOTH",
"848 516 OFFCURVE",
"732 393 OFFCURVE",
"732 237 CURVE SMOOTH",
"732 92 OFFCURVE",
"834 -10 OFFCURVE",
"1007 -10 CURVE SMOOTH"
);
},
{
closed = 1;
nodes = (
"145 516 OFFCURVE",
"32 394 OFFCURVE",
"32 241 CURVE SMOOTH",
"32 87 OFFCURVE",
"128 -10 OFFCURVE",
"286 -10 CURVE SMOOTH",
"443 -10 OFFCURVE",
"549 101 OFFCURVE",
"549 263 CURVE SMOOTH",
"549 419 OFFCURVE",
"456 516 OFFCURVE",
"301 516 CURVE SMOOTH"
);
},
{
closed = 1;
nodes = (
"224 117 OFFCURVE",
"182 163 OFFCURVE",
"182 242 CURVE SMOOTH",
"182 327 OFFCURVE",
"230 389 OFFCURVE",
"297 389 CURVE SMOOTH",
"363 389 OFFCURVE",
"400 344 OFFCURVE",
"400 264 CURVE SMOOTH",
"400 174 OFFCURVE",
"359 117 OFFCURVE",
"290 117 CURVE SMOOTH"
);
}
);
};
hints = (
{
horizontal = 1;
place = "{-8, 129}";
type = Stem;
},
{
horizontal = 1;
place = "{391, 123}";
type = Stem;
},
{
place = "{46, 133}";
type = Stem;
},
{
place = "{345, 141}";
type = Stem;
}
);
layerId = "014D4A40-7C7F-4023-B30E-1F55CE5EA091";
paths = (
{
closed = 1;
nodes = (
"376 -10 OFFCURVE",
"449 2 OFFCURVE",
"501 32 CURVE",
"464 144 LINE",
"419 122 OFFCURVE",
"362 116 OFFCURVE",
"331 116 CURVE SMOOTH",
"221 116 OFFCURVE",
"178 166 OFFCURVE",
"178 252 CURVE SMOOTH",
"178 265 LINE SMOOTH",
"178 337 OFFCURVE",
"228 403 OFFCURVE",
"315 403 CURVE SMOOTH",
"364 403 OFFCURVE",
"391 381 OFFCURVE",
"391 353 CURVE SMOOTH",
"391 318 OFFCURVE",
"370 296 OFFCURVE",
"290 293 CURVE SMOOTH",
"153 288 LINE",
"148 183 LINE",
"294 188 LINE SMOOTH",
"452 193 OFFCURVE",
"525 257 OFFCURVE",
"525 357 CURVE SMOOTH",
"525 449 OFFCURVE",
"447 515 OFFCURVE",
"323 515 CURVE SMOOTH",
"149 515 OFFCURVE",
"31 392 OFFCURVE",
"31 245 CURVE SMOOTH",
"31 90 OFFCURVE",
"137 -10 OFFCURVE",
"312 -10 CURVE SMOOTH"
);
}
);
width = 555;
}
);
leftKerningGroup = o;
leftMetricsKey = o;
widthMetricsKey = e;
note = e;
},
{
color = 4;
glyphname = f.ss01;
lastChange = "2019-02-19 20:12:15 +0000";
layers = (
{
background = {
paths = (
{
closed = 1;
nodes = (
"-16 433 LINE",
"328 433 LINE",
"328 498 LINE",
"-16 498 LINE"
);
},
{
closed = 1;
nodes = (
"165 710 OFFCURVE",
"83 621 OFFCURVE",
"83 485 CURVE SMOOTH",
"83 -35 LINE SMOOTH",
"83 -139 OFFCURVE",
"33 -192 OFFCURVE",
"-50 -192 CURVE SMOOTH",
"-95 -192 OFFCURVE",
"-131 -178 OFFCURVE",
"-159 -148 CURVE",
"-194 -207 LINE",
"-163 -241 OFFCURVE",
"-112 -260 OFFCURVE",
"-52 -260 CURVE SMOOTH",
"78 -260 OFFCURVE",
"160 -171 OFFCURVE",
"160 -35 CURVE SMOOTH",
"160 485 LINE SMOOTH",
"160 589 OFFCURVE",
"210 642 OFFCURVE",
"293 642 CURVE SMOOTH",
"338 642 OFFCURVE",
"374 628 OFFCURVE",
"402 598 CURVE",
"437 657 LINE",
"406 691 OFFCURVE",
"355 710 OFFCURVE",
"295 710 CURVE SMOOTH"
);
}
);
};
layerId = "A3B50665-EA37-4AC6-885C-1233CA61B6BD";
paths = (
{
closed = 1;
nodes = (
"170 -190 LINE",
"170 491 LINE SMOOTH",
"170 589 OFFCURVE",
"222 652 OFFCURVE",
"320 652 CURVE SMOOTH",
"354 652 OFFCURVE",
"387 645 OFFCURVE",
"413 634 CURVE",
"434 697 LINE",
"406 711 OFFCURVE",
"365 720 OFFCURVE",
"318 720 CURVE SMOOTH",
"179 720 OFFCURVE",
"94 621 OFFCURVE",
"94 499 CURVE SMOOTH",
"93 -190 LINE"
);
},
{
closed = 1;
nodes = (
"338 432 LINE",
"338 498 LINE",
"-6 498 LINE",
"-6 432 LINE"
);
}
);
width = 328;
},
{
layerId = "014D4A40-7C7F-4023-B30E-1F55CE5EA091";
paths = (
{
closed = 1;
nodes = (
"226 -190 LINE",
"226 504 LINE SMOOTH",
"226 568 OFFCURVE",
"265 610 OFFCURVE",
"351 610 CURVE SMOOTH",
"374 610 OFFCURVE",
"410 604 OFFCURVE",
"435 593 CURVE",
"480 703 LINE",
"448 719 OFFCURVE",
"399 730 OFFCURVE",
"341 730 CURVE SMOOTH",
"181 730 OFFCURVE",
"80 630 OFFCURVE",
"80 493 CURVE SMOOTH",
"80 -190 LINE"
);
},
{
closed = 1;
nodes = (
"364 385 LINE",
"364 508 LINE",
"-15 508 LINE",
"-15 385 LINE"
);
}
);
width = 361;
}
);
leftMetricsKey = f;
rightMetricsKey = f;
},
{
color = 4;
glyphname = g.ss01;
lastChange = "2019-02-19 20:12:36 +0000";
layers = (
{
background = {
paths = (
{
closed = 1;
nodes = (
"421 416 LINE",
"427 428 LINE",
"405 478 OFFCURVE",
"353 507 OFFCURVE",
"285 507 CURVE SMOOTH",
"145 507 OFFCURVE",
"45 396 OFFCURVE",
"45 241 CURVE SMOOTH",
"45 108 OFFCURVE",
"122 25 OFFCURVE",
"240 25 CURVE SMOOTH",
"337 25 OFFCURVE",
"412 80 OFFCURVE",
"430 171 CURVE",
"419 154 LINE",
"419 64 LINE SMOOTH",
"419 -68 OFFCURVE",
"358 -132 OFFCURVE",
"247 -132 CURVE SMOOTH",
"148 -132 OFFCURVE",
"103 -98 OFFCURVE",
"103 -51 CURVE SMOOTH",
"103 -21 OFFCURVE",
"122 15 OFFCURVE",
"174 39 CURVE",
"123 75 LINE",
"51 37 OFFCURVE",
"24 -13 OFFCURVE",
"24 -64 CURVE SMOOTH",
"24 -143 OFFCURVE",
"103 -200 OFFCURVE",
"240 -200 CURVE SMOOTH",
"400 -200 OFFCURVE",
"496 -117 OFFCURVE",
"496 64 CURVE SMOOTH",
"496 498 LINE",
"425 498 LINE"
);
},
{
closed = 1;
nodes = (
"173 94 OFFCURVE",
"126 150 OFFCURVE",
"126 247 CURVE SMOOTH",
"126 359 OFFCURVE",
"193 435 OFFCURVE",
"292 435 CURVE SMOOTH",
"375 435 OFFCURVE",
"418 388 OFFCURVE",
"418 296 CURVE SMOOTH",
"418 181 OFFCURVE",
"347 94 OFFCURVE",
"254 94 CURVE SMOOTH"
);
}
);
};
hints = (
{
horizontal = 1;
place = "{-173, 75}";
type = Stem;
},
{
horizontal = 1;
place = "{21, 75}";
type = Stem;
},
{
horizontal = 1;
place = "{432, 75}";
type = Stem;
},
{
place = "{64, 77}";
type = Stem;
},
{
place = "{405, 77}";
type = Stem;
},
{
horizontal = 1;
place = "{498, -20}";
target = down;
type = TopGhost;
}
);
layerId = "A3B50665-EA37-4AC6-885C-1233CA61B6BD";
paths = (
{
closed = 1;
nodes = (
"421 416 LINE",
"427 428 LINE",
"405 478 OFFCURVE",
"353 507 OFFCURVE",
"285 507 CURVE SMOOTH",
"145 507 OFFCURVE",
"45 396 OFFCURVE",
"45 241 CURVE SMOOTH",
"45 109 OFFCURVE",
"121 25 OFFCURVE",
"240 25 CURVE SMOOTH",
"338 25 OFFCURVE",
"412 81 OFFCURVE",
"430 171 CURVE",
"419 154 LINE",
"419 64 LINE SMOOTH",
"419 -65 OFFCURVE",
"360 -133 OFFCURVE",
"238 -133 CURVE SMOOTH",
"146 -133 OFFCURVE",
"103 -102 OFFCURVE",
"103 -51 CURVE SMOOTH",
"103 -12 OFFCURVE",
"133 23 OFFCURVE",
"184 43 CURVE",
"123 75 LINE",
"58 41 OFFCURVE",
"24 -7 OFFCURVE",
"24 -64 CURVE SMOOTH",
"24 -147 OFFCURVE",
"103 -200 OFFCURVE",
"230 -200 CURVE SMOOTH",
"408 -200 OFFCURVE",
"496 -109 OFFCURVE",
"496 64 CURVE SMOOTH",
"496 498 LINE",
"425 498 LINE"
);
},
{
closed = 1;
nodes = (
"173 94 OFFCURVE",
"126 150 OFFCURVE",
"126 247 CURVE SMOOTH",
"126 359 OFFCURVE",
"193 435 OFFCURVE",
"292 435 CURVE SMOOTH",
"375 435 OFFCURVE",
"418 386 OFFCURVE",
"418 292 CURVE SMOOTH",
"418 179 OFFCURVE",
"347 94 OFFCURVE",
"254 94 CURVE SMOOTH"
);
}
);
width = 564;
},
{
background = {
paths = (
{
closed = 1;
nodes = (
"415 422 LINE",
"425 445 LINE",
"404 489 OFFCURVE",
"349 516 OFFCURVE",
"281 516 CURVE SMOOTH",
"133 516 OFFCURVE",
"22 402 OFFCURVE",
"22 248 CURVE SMOOTH",
"22 112 OFFCURVE",
"109 25 OFFCURVE",
"245 25 CURVE SMOOTH",
"337 25 OFFCURVE",
"415 75 OFFCURVE",
"435 147 CURVE",
"412 155 LINE",
"412 76 LINE SMOOTH",
"412 -27 OFFCURVE",
"355 -80 OFFCURVE",
"254 -80 CURVE SMOOTH",
"177 -80 OFFCURVE",
"143 -57 OFFCURVE",
"143 -20 CURVE SMOOTH",
"143 7 OFFCURVE",
"163 35 OFFCURVE",
"207 54 CURVE",
"110 104 LINE",
"36 64 OFFCURVE",
"-4 15 OFFCURVE",
"-4 -49 CURVE SMOOTH",
"-4 -139 OFFCURVE",
"86 -200 OFFCURVE",
"237 -200 CURVE SMOOTH",
"439 -200 OFFCURVE",
"558 -99 OFFCURVE",
"558 93 CURVE SMOOTH",
"558 506 LINE",
"425 506 LINE"
);
},
{
closed = 1;
nodes = (
"217 152 OFFCURVE",
"177 192 OFFCURVE",
"177 256 CURVE SMOOTH",
"177 334 OFFCURVE",
"231 389 OFFCURVE",
"307 389 CURVE SMOOTH",
"376 389 OFFCURVE",
"412 351 OFFCURVE",
"412 282 CURVE SMOOTH",
"412 209 OFFCURVE",
"354 152 OFFCURVE",
"283 152 CURVE SMOOTH"
);
}
);
};
hints = (
{
horizontal = 1;
place = "{-166, 123}";
type = Stem;
},
{
horizontal = 1;
place = "{47, 125}";
type = Stem;
},
{
horizontal = 1;
place = "{498, -20}";
target = down;
type = TopGhost;
},
{
place = "{46, 138}";
type = Stem;
},
{
place = "{369, 134}";
type = Stem;
},
{
horizontal = 1;
place = "{386, 129}";
type = Stem;
},
{
place = "{388, 115}";
type = Stem;
}
);
layerId = "014D4A40-7C7F-4023-B30E-1F55CE5EA091";
paths = (
{
closed = 1;
nodes = (
"415 422 LINE",
"425 445 LINE",
"404 489 OFFCURVE",
"350 516 OFFCURVE",
"282 516 CURVE SMOOTH",
"136 516 OFFCURVE",
"26 402 OFFCURVE",
"26 253 CURVE SMOOTH",
"26 112 OFFCURVE",
"132 25 OFFCURVE",
"263 25 CURVE SMOOTH",
"348 25 OFFCURVE",
"414 72 OFFCURVE",
"435 147 CURVE",
"412 155 LINE",
"412 86 LINE SMOOTH",
"412 -27 OFFCURVE",
"360 -81 OFFCURVE",
"257 -81 CURVE SMOOTH",
"172 -81 OFFCURVE",
"143 -57 OFFCURVE",
"143 -20 CURVE SMOOTH",
"143 7 OFFCURVE",
"160 35 OFFCURVE",
"207 49 CURVE",
"110 114 LINE",
"36 74 OFFCURVE",
"2 25 OFFCURVE",
"2 -39 CURVE SMOOTH",
"2 -129 OFFCURVE",
"88 -200 OFFCURVE",
"247 -200 CURVE SMOOTH",
"439 -200 OFFCURVE",
"558 -99 OFFCURVE",
"558 103 CURVE SMOOTH",
"558 506 LINE",
"435 506 LINE"
);
},
{
closed = 1;
nodes = (
"218 152 OFFCURVE",
"177 195 OFFCURVE",
"177 260 CURVE SMOOTH",
"177 337 OFFCURVE",
"230 389 OFFCURVE",
"305 389 CURVE SMOOTH",
"375 389 OFFCURVE",
"412 350 OFFCURVE",
"412 280 CURVE SMOOTH",
"412 208 OFFCURVE",
"365 152 OFFCURVE",
"285 152 CURVE SMOOTH"
);
}
);
width = 614;
}
);
widthMetricsKey = g;
note = g;
rightMetricsKey = "=|n";
},
{
color = 4;
glyphname = k.ss01;
lastChange = "2019-02-19 20:12:15 +0000";
layers = (
{
background = {
paths = (
{
closed = 1;
nodes = (
"488 -10 OFFCURVE",
"541 4 OFFCURVE",
"566 21 CURVE",
"533 133 LINE",
"510 122 OFFCURVE",
"487 116 OFFCURVE",
"461 116 CURVE SMOOTH",
"433 116 OFFCURVE",
"411 128 OFFCURVE",
"388 157 CURVE SMOOTH",
"291 281 LINE",
"285 232 LINE",
"544 508 LINE",
"365 508 LINE",
"146 277 LINE",
"144 239 LINE",
"271 69 LINE SMOOTH",
"312 14 OFFCURVE",
"363 -10 OFFCURVE",
"442 -10 CURVE SMOOTH"
);
},
{
closed = 1;
nodes = (
"177 0 LINE",
"177 720 LINE",
"31 719 LINE",
"31 0 LINE"
);
}
);
};
hints = (
{
horizontal = 1;
place = "{0, 21}";
target = up;
type = BottomGhost;
},
{
horizontal = 1;
place = "{214, 70}";
type = Stem;
},
{
horizontal = 1;
place = "{498, -20}";
target = down;
type = TopGhost;
},
{
horizontal = 1;
place = "{664, -20}";
target = down;
type = TopGhost;
},
{
place = "{72, 77}";
type = Stem;
},
{
place = "{352, 77}";
type = Stem;
}
);
layerId = "A3B50665-EA37-4AC6-885C-1233CA61B6BD";
paths = (
{
closed = 1;
nodes = (
"449 -6 OFFCURVE",
"480 5 OFFCURVE",
"507 27 CURVE",
"485 83 LINE",
"466 70 OFFCURVE",
"444 61 OFFCURVE",
"422 61 CURVE SMOOTH",
"387 61 OFFCURVE",
"358 80 OFFCURVE",
"317 130 CURVE SMOOTH",
"185 290 LINE",
"188 233 LINE",
"456 498 LINE",
"355 498 LINE",
"129 269 LINE",
"128 243 LINE",
"276 63 LINE SMOOTH",
"315 15 OFFCURVE",
"357 -6 OFFCURVE",
"412 -6 CURVE SMOOTH"
);
},
{
closed = 1;
nodes = (
"146 0 LINE",
"146 710 LINE",
"68 710 LINE",
"68 0 LINE"
);
}
);
width = 482;
},
{
background = {
paths = (
{
closed = 1;
nodes = (
"518 -10 OFFCURVE",
"571 4 OFFCURVE",
"596 21 CURVE",
"563 133 LINE",
"540 122 OFFCURVE",
"516 116 OFFCURVE",
"490 116 CURVE SMOOTH",
"459 116 OFFCURVE",
"435 127 OFFCURVE",
"414 153 CURVE SMOOTH",
"348 235 LINE",
"311 178 LINE",
"458 184 OFFCURVE",
"555 258 OFFCURVE",
"555 360 CURVE SMOOTH",
"555 453 OFFCURVE",
"485 516 OFFCURVE",
"392 516 CURVE SMOOTH",
"290 516 OFFCURVE",
"200 456 OFFCURVE",
"180 341 CURVE",
"202 333 LINE",
"202 720 LINE",
"56 719 LINE",
"56 0 LINE",
"202 0 LINE",
"202 110 LINE SMOOTH",
"202 303 OFFCURVE",
"260 400 OFFCURVE",
"357 400 CURVE SMOOTH",
"395 400 OFFCURVE",
"418 383 OFFCURVE",
"418 347 CURVE SMOOTH",
"418 295 OFFCURVE",
"361 260 OFFCURVE",
"274 260 CURVE SMOOTH",
"244 260 OFFCURVE",
"219 262 OFFCURVE",
"195 269 CURVE",
"176 232 LINE",
"300 69 LINE SMOOTH",
"341 14 OFFCURVE",
"391 -10 OFFCURVE",
"471 -10 CURVE SMOOTH"
);
}
);
};
hints = (
{
horizontal = 1;
place = "{0, 21}";
target = up;
type = BottomGhost;
},
{
horizontal = 1;
place = "{188, 123}";
type = Stem;
},
{
horizontal = 1;
place = "{498, -20}";
target = down;
type = TopGhost;
},
{
horizontal = 1;
place = "{672, -20}";
target = down;
type = TopGhost;
},
{
place = "{54, 134}";
type = Stem;
},
{
place = "{318, 134}";
type = Stem;
}
);
layerId = "014D4A40-7C7F-4023-B30E-1F55CE5EA091";
paths = (
{
closed = 1;
nodes = (
"513 -10 OFFCURVE",
"566 4 OFFCURVE",
"591 21 CURVE",
"558 133 LINE",
"535 122 OFFCURVE",
"512 116 OFFCURVE",
"486 116 CURVE SMOOTH",
"458 116 OFFCURVE",
"436 128 OFFCURVE",
"413 157 CURVE SMOOTH",
"316 281 LINE",
"310 232 LINE",
"569 508 LINE",
"390 508 LINE",
"171 277 LINE",
"169 239 LINE",
"296 69 LINE SMOOTH",
"337 14 OFFCURVE",
"388 -10 OFFCURVE",
"467 -10 CURVE SMOOTH"
);
},
{
closed = 1;
nodes = (
"202 0 LINE",
"202 710 LINE",
"56 709 LINE",
"56 0 LINE"
);
}
);
width = 570;
}
);
leftMetricsKey = h;
note = k;
},
{
color = 4;
glyphname = l.ss01;
lastChange = "2019-02-19 16:26:41 +0000";
layers = (
{
hints = (
{
horizontal = 1;
place = "{0, 21}";
target = up;
type = BottomGhost;
},
{
horizontal = 1;
place = "{664, -20}";
target = down;
type = TopGhost;
},
{
place = "{72, 77}";
type = Stem;
}
);
layerId = "A3B50665-EA37-4AC6-885C-1233CA61B6BD";
paths = (
{
closed = 1;
nodes = (
"68 710 LINE",
"68 0 LINE",
"146 0 LINE",
"146 710 LINE"
);
}
);
width = 214;
},
{
hints = (
{
horizontal = 1;
place = "{0, 21}";
target = up;
type = BottomGhost;
},
{
horizontal = 1;
place = "{672, -20}";
target = down;
type = TopGhost;
},
{
place = "{54, 134}";
type = Stem;
}
);
layerId = "014D4A40-7C7F-4023-B30E-1F55CE5EA091";
paths = (
{
closed = 1;
nodes = (
"56 709 LINE",
"56 0 LINE",
"202 0 LINE",
"202 710 LINE"
);
}
);
width = 258;
}
);
leftMetricsKey = h;
note = l;
rightMetricsKey = "=|";
},
{
color = 4;
glyphname = y.ss01;
lastChange = "2019-02-19 20:12:15 +0000";
layers = (
{
background = {
paths = (
{
closed = 1;
nodes = (
"420 391 LINE SMOOTH",
"420 178 OFFCURVE",
"348 65 OFFCURVE",
"247 65 CURVE SMOOTH",
"178 65 OFFCURVE",
"143 110 OFFCURVE",
"144 215 CURVE SMOOTH",
"146 498 LINE",
"68 498 LINE",
"66 212 LINE SMOOTH",
"65 65 OFFCURVE",
"127 -8 OFFCURVE",
"238 -8 CURVE SMOOTH",
"326 -8 OFFCURVE",
"413 62 OFFCURVE",
"435 175 CURVE",
"421 156 LINE",
"421 84 LINE SMOOTH",
"421 -69 OFFCURVE",
"367 -129 OFFCURVE",
"243 -129 CURVE SMOOTH",
"192 -129 OFFCURVE",
"139 -117 OFFCURVE",
"93 -96 CURVE",
"73 -166 LINE",
"121 -189 OFFCURVE",
"186 -200 OFFCURVE",
"241 -200 CURVE SMOOTH",
"409 -200 OFFCURVE",
"496 -107 OFFCURVE",
"496 74 CURVE SMOOTH",
"496 498 LINE",
"420 498 LINE"
);
}
);
};
layerId = "A3B50665-EA37-4AC6-885C-1233CA61B6BD";
paths = (
{
closed = 1;
nodes = (
"409 -200 OFFCURVE",
"496 -107 OFFCURVE",
"496 74 CURVE SMOOTH",
"496 498 LINE",
"420 498 LINE",
"420 391 LINE SMOOTH",
"420 183 OFFCURVE",
"348 75 OFFCURVE",
"247 75 CURVE SMOOTH",
"178 75 OFFCURVE",
"143 120 OFFCURVE",
"144 225 CURVE SMOOTH",
"146 498 LINE",
"68 498 LINE",
"66 222 LINE SMOOTH",
"65 75 OFFCURVE",
"127 2 OFFCURVE",
"238 2 CURVE SMOOTH",
"326 2 OFFCURVE",
"413 67 OFFCURVE",
"435 180 CURVE",
"421 156 LINE",
"421 84 LINE SMOOTH",
"421 -69 OFFCURVE",
"367 -129 OFFCURVE",
"243 -129 CURVE SMOOTH",
"192 -129 OFFCURVE",
"139 -117 OFFCURVE",
"93 -96 CURVE",
"73 -166 LINE",
"121 -189 OFFCURVE",
"186 -200 OFFCURVE",
"241 -200 CURVE SMOOTH"
);
}
);
width = 564;
},
{
background = {
paths = (
{
closed = 1;
nodes = (
"414 386 LINE SMOOTH",
"414 180 OFFCURVE",
"343 127 OFFCURVE",
"279 127 CURVE SMOOTH",
"230 127 OFFCURVE",
"200 153 OFFCURVE",
"201 229 CURVE SMOOTH",
"203 508 LINE",
"56 508 LINE",
"54 218 LINE SMOOTH",
"53 62 OFFCURVE",
"112 -10 OFFCURVE",
"240 -10 CURVE SMOOTH",
"327 -10 OFFCURVE",
"417 50 OFFCURVE",
"439 175 CURVE",
"415 157 LINE",
"415 89 LINE SMOOTH",
"415 -28 OFFCURVE",
"358 -67 OFFCURVE",
"237 -67 CURVE SMOOTH",
"193 -67 OFFCURVE",
"131 -54 OFFCURVE",
"85 -31 CURVE",
"50 -161 LINE",
"104 -189 OFFCURVE",
"173 -200 OFFCURVE",
"235 -200 CURVE SMOOTH",
"436 -200 OFFCURVE",
"559 -104 OFFCURVE",
"559 96 CURVE SMOOTH",
"559 508 LINE",
"414 508 LINE"
);
}
);
};
guideLines = (
{
angle = 68.7799;
position = "{322, 235}";
}
);
layerId = "014D4A40-7C7F-4023-B30E-1F55CE5EA091";
paths = (
{
closed = 1;
nodes = (
"436 -200 OFFCURVE",
"559 -104 OFFCURVE",
"559 96 CURVE SMOOTH",
"559 508 LINE",
"414 508 LINE",
"414 386 LINE SMOOTH",
"414 190 OFFCURVE",
"347 146 OFFCURVE",
"283 146 CURVE SMOOTH",
"234 146 OFFCURVE",
"200 172 OFFCURVE",
"201 248 CURVE SMOOTH",
"203 508 LINE",
"56 508 LINE",
"54 237 LINE SMOOTH",
"53 81 OFFCURVE",
"122 9 OFFCURVE",
"250 9 CURVE SMOOTH",
"337 9 OFFCURVE",
"415 60 OFFCURVE",
"437 185 CURVE",
"415 157 LINE",
"415 89 LINE SMOOTH",
"415 -28 OFFCURVE",
"358 -67 OFFCURVE",
"247 -67 CURVE SMOOTH",
"203 -67 OFFCURVE",
"141 -54 OFFCURVE",
"95 -31 CURVE",
"60 -161 LINE",
"114 -189 OFFCURVE",
"183 -200 OFFCURVE",
"245 -200 CURVE SMOOTH"
);
}
);
width = 615;
}
);
leftMetricsKey = u;
widthMetricsKey = u;
},
{
color = 4;
glyphname = f.ss02;
lastChange = "2019-02-19 20:12:15 +0000";
layers = (
{
background = {
paths = (
{
closed = 1;
nodes = (
"-6 433 LINE",
"338 433 LINE",
"338 498 LINE",
"-6 498 LINE"
);
},
{
closed = 1;
nodes = (
"175 710 OFFCURVE",
"93 621 OFFCURVE",
"93 485 CURVE SMOOTH",
"93 -35 LINE SMOOTH",
"93 -139 OFFCURVE",
"43 -192 OFFCURVE",
"-40 -192 CURVE SMOOTH",
"-85 -192 OFFCURVE",
"-121 -178 OFFCURVE",
"-149 -148 CURVE",
"-184 -207 LINE",
"-153 -241 OFFCURVE",
"-102 -260 OFFCURVE",
"-42 -260 CURVE SMOOTH",
"88 -260 OFFCURVE",
"170 -171 OFFCURVE",
"170 -35 CURVE SMOOTH",
"170 485 LINE SMOOTH",
"170 589 OFFCURVE",
"220 642 OFFCURVE",
"303 642 CURVE SMOOTH",
"348 642 OFFCURVE",
"384 628 OFFCURVE",
"412 598 CURVE",
"447 657 LINE",
"416 691 OFFCURVE",
"365 710 OFFCURVE",
"305 710 CURVE SMOOTH"
);
}
);
};
layerId = "A3B50665-EA37-4AC6-885C-1233CA61B6BD";
paths = (
{
closed = 1;
nodes = (
"348 432 LINE",
"348 498 LINE",
"4 498 LINE",
"4 432 LINE"
);
},
{
closed = 1;
nodes = (
"189 720 OFFCURVE",
"104 621 OFFCURVE",
"104 499 CURVE SMOOTH",
"104 10 LINE SMOOTH",
"104 -77 OFFCURVE",
"70 -130 OFFCURVE",
"-12 -130 CURVE SMOOTH",
"-39 -130 OFFCURVE",
"-66 -125 OFFCURVE",
"-91 -114 CURVE",
"-109 -180 LINE",
"-84 -194 OFFCURVE",
"-46 -200 OFFCURVE",
"-10 -200 CURVE SMOOTH",
"106 -200 OFFCURVE",
"181 -124 OFFCURVE",
"181 6 CURVE SMOOTH",
"181 491 LINE SMOOTH",
"181 589 OFFCURVE",
"232 652 OFFCURVE",
"330 652 CURVE SMOOTH",
"364 652 OFFCURVE",
"397 645 OFFCURVE",
"423 634 CURVE",
"444 697 LINE",
"416 711 OFFCURVE",
"375 720 OFFCURVE",
"328 720 CURVE SMOOTH"
);
}
);
width = 338;
},
{
background = {
paths = (
{
closed = 1;
nodes = (
"180 -200 OFFCURVE",
"236 -139 OFFCURVE",
"236 -51 CURVE SMOOTH",
"236 219 LINE",
"90 220 LINE",
"90 -28 LINE SMOOTH",
"90 -53 OFFCURVE",
"77 -73 OFFCURVE",
"47 -73 CURVE SMOOTH",
"31 -73 OFFCURVE",
"17 -68 OFFCURVE",
"7 -61 CURVE",
"-27 -172 LINE",
"-6 -188 OFFCURVE",
"37 -200 OFFCURVE",
"81 -200 CURVE SMOOTH"
);
}
);
};
layerId = "014D4A40-7C7F-4023-B30E-1F55CE5EA091";
paths = (
{
closed = 1;
nodes = (
"374 385 LINE",
"374 508 LINE",
"-5 508 LINE",
"-5 385 LINE"
);
},
{
closed = 1;
nodes = (
"191 730 OFFCURVE",
"90 630 OFFCURVE",
"90 493 CURVE SMOOTH",
"90 26 LINE SMOOTH",
"90 -44 OFFCURVE",
"62 -76 OFFCURVE",
"-1 -76 CURVE SMOOTH",
"-33 -76 OFFCURVE",
"-67 -69 OFFCURVE",
"-88 -63 CURVE",
"-109 -183 LINE",
"-80 -194 OFFCURVE",
"-39 -200 OFFCURVE",
"4 -200 CURVE SMOOTH",
"143 -200 OFFCURVE",
"236 -119 OFFCURVE",
"236 27 CURVE SMOOTH",
"236 504 LINE SMOOTH",
"236 568 OFFCURVE",
"275 610 OFFCURVE",
"361 610 CURVE SMOOTH",
"384 610 OFFCURVE",
"420 604 OFFCURVE",
"445 593 CURVE",
"490 703 LINE",
"458 719 OFFCURVE",
"409 730 OFFCURVE",
"351 730 CURVE SMOOTH"
);
}
);
width = 371;
}
);
widthMetricsKey = "=f+10";
rightMetricsKey = f;
},
{
glyphname = period;
lastChange = "2019-02-07 12:44:15 +0000";
layers = (
{
hints = (
{
horizontal = 1;
place = "{0, 99}";
type = Stem;
},
{
place = "{61, 100}";
type = Stem;
}
);
layerId = "A3B50665-EA37-4AC6-885C-1233CA61B6BD";
paths = (
{
closed = 1;
nodes = (
"80 99 LINE SMOOTH",
"69 99 OFFCURVE",
"61 90 OFFCURVE",
"61 80 CURVE SMOOTH",
"61 18 LINE SMOOTH",
"61 9 OFFCURVE",
"69 0 OFFCURVE",
"80 0 CURVE SMOOTH",
"142 0 LINE SMOOTH",
"152 0 OFFCURVE",
"160 9 OFFCURVE",
"160 18 CURVE SMOOTH",
"160 81 LINE SMOOTH",
"160 90 OFFCURVE",
"152 99 OFFCURVE",
"142 99 CURVE SMOOTH"
);
}
);
width = 221;
},
{
hints = (
{
horizontal = 1;
place = "{0, 154}";
type = Stem;
},
{
place = "{44, 154}";
type = Stem;
}
);
layerId = "014D4A40-7C7F-4023-B30E-1F55CE5EA091";
paths = (
{
closed = 1;
nodes = (
"77 154 LINE SMOOTH",
"52 154 OFFCURVE",
"44 138 OFFCURVE",
"44 121 CURVE SMOOTH",
"44 33 LINE SMOOTH",
"44 17 OFFCURVE",
"52 0 OFFCURVE",
"77 0 CURVE SMOOTH",
"165 0 LINE SMOOTH",
"190 0 OFFCURVE",
"198 17 OFFCURVE",
"198 33 CURVE SMOOTH",
"198 129 LINE SMOOTH",
"198 146 OFFCURVE",
"188 154 OFFCURVE",
"163 154 CURVE SMOOTH"
);
}
);
width = 242;
}
);
note = period;
unicode = 002E;
},
